<svg id="Icon_Global" data-name="Icon/Global" xmlns="http://www.w3.org/2000/svg" width="12" height="12" viewBox="0 0 12 12">
  <rect id="Rectangle" width="12" height="12" fill="gray" opacity="0"/>
  <g id="globe" transform="translate(0.6 0.6)">
    <rect id="Rectangle-2" data-name="Rectangle" width="10.8" height="10.8" fill="#666" opacity="0"/>
    <path id="Combined_Shape" data-name="Combined Shape" d="M4.189,8.4H4.175a4.2,4.2,0,1,1,.049,0H4.189Zm.88-.876A3.438,3.438,0,0,0,7.615,4.582H6.09A6.218,6.218,0,0,1,5.069,7.525Zm-1.738,0a6.231,6.231,0,0,1-1.02-2.943H.784A3.436,3.436,0,0,0,3.331,7.525Zm.869-.1A5.5,5.5,0,0,0,5.325,4.582H3.077A5.5,5.5,0,0,0,4.2,7.426ZM7.615,3.818A3.441,3.441,0,0,0,5.068.874,6.242,6.242,0,0,1,6.089,3.818Zm-2.292,0A5.516,5.516,0,0,0,4.2.974,5.482,5.482,0,0,0,3.076,3.818Zm-3.013,0A6.218,6.218,0,0,1,3.332.874,3.441,3.441,0,0,0,.784,3.818Z" transform="translate(1.2 1.2)" fill="#666"/>
  </g>
</svg>
