<svg id="Icon_Activity_Exposure" data-name="Icon/Activity/Exposure" xmlns="http://www.w3.org/2000/svg" width="20" height="20" viewBox="0 0 20 20">
  <rect id="Rectangle" width="20" height="20" fill="gray" opacity="0"/>
  <g id="Exposure" transform="translate(5510 2979)">
    <rect id="Rectangle-2" data-name="Rectangle" width="18" height="18" transform="translate(-5509 -2978)" fill="#666" opacity="0"/>
    <path id="Combined_Shape" data-name="Combined Shape" d="M12.308,13.906l-4-4.752A5.621,5.621,0,0,1,8.6,1.626a5.5,5.5,0,0,1,7.806,0,5.619,5.619,0,0,1,.29,7.528l-3.98,4.751a.267.267,0,0,1-.2.1A.263.263,0,0,1,12.308,13.906ZM9.471,2.543a4.433,4.433,0,0,0-.225,5.926l3.263,3.873L15.752,8.47a4.434,4.434,0,0,0-.223-5.927,4.26,4.26,0,0,0-6.058,0ZM.681,14a.636.636,0,0,1-.325-.09C.338,13.9.319,13.885.3,13.872a.689.689,0,0,1-.1-.092.783.783,0,0,1-.2-.53v-2.5A.719.719,0,0,1,.681,10H8.018a.22.22,0,0,1,.172.086l2.754,3.5a.268.268,0,0,1,.029.282.222.222,0,0,1-.2.131Zm.442-1.922v1h8.02l-1.662-2.2H1.123ZM1.9,12.4a.4.4,0,0,1,0-.8H3.1a.4.4,0,1,1,0,.8ZM.635,9a.557.557,0,0,1-.3-.09A.616.616,0,0,1,.28,8.872.65.65,0,0,1,.185,8.78.817.817,0,0,1,0,8.25V5.75A.7.7,0,0,1,.635,5h5.3a.192.192,0,0,1,.137.06.27.27,0,0,1,.074.2,6.6,6.6,0,0,0,.821,3.356.288.288,0,0,1,0,.282A.2.2,0,0,1,6.79,9Zm.38-1.853v1H5.636a7.614,7.614,0,0,1-.441-2.2H1.014ZM10,5.5A2.5,2.5,0,1,1,12.5,8,2.5,2.5,0,0,1,10,5.5Zm1.3,0a1.2,1.2,0,1,0,1.2-1.2A1.2,1.2,0,0,0,11.3,5.5ZM1.9,7.4a.4.4,0,0,1,0-.8H3.1a.4.4,0,1,1,0,.8ZM.638,4a.566.566,0,0,1-.3-.09C.316,3.9.3,3.885.281,3.872A.7.7,0,0,1,.187,3.78.81.81,0,0,1,0,3.25V.75A.7.7,0,0,1,.638,0h7.15a.207.207,0,0,1,.19.139.281.281,0,0,1-.055.3c-.09.09-.179.185-.264.283A6.209,6.209,0,0,0,6.265,3.8a.223.223,0,0,1-.208.2Zm.383-1.868v1H5.27a7.122,7.122,0,0,1,.836-2.2H1.021ZM1.9,2.4a.4.4,0,0,1,0-.8H3.1a.4.4,0,1,1,0,.8Z" transform="translate(-5509 -2976)" fill="#222"/>
  </g>
</svg>
