<?xml version="1.0" encoding="UTF-8"?>
<!DOCTYPE svg PUBLIC "-//W3C//DTD SVG 1.1//EN" "http://www.w3.org/Graphics/SVG/1.1/DTD/svg11.dtd">
<!-- Creator: CorelDRAW 2019 (64-Bit) -->
<svg xmlns="http://www.w3.org/2000/svg" xml:space="preserve" width="100.671mm" height="23.0568mm" version="1.1" style="shape-rendering:geometricPrecision; text-rendering:geometricPrecision; image-rendering:optimizeQuality; fill-rule:evenodd; clip-rule:evenodd"
viewBox="0 0 12127.47 2777.57"
 xmlns:xlink="http://www.w3.org/1999/xlink">
 <defs>
  <style type="text/css">
   <![CDATA[
    .fil0 {fill:#25B043;fill-rule:nonzero}
    .fil1 {fill:#6EC225;fill-rule:nonzero}
   ]]>
  </style>
 </defs>
 <g id="Layer_x0020_1">
  <metadata id="CorelCorpID_0Corel-Layer"/>
  <g id="_1941330811456">
   <path class="fil0" d="M4755.86 825.29l-326.38 -813 -1.28 -3.12 -21.89 0 -326.2 820.65 -216.94 -807.86 -0.96 -3.66 -133.6 0 309.29 1140.65 0.88 3.17 31.43 3.95 344.05 -875.11 348.65 871.56 1.4 3.54 31.41 -3.95 308.45 -1137.54 1.7 -6.28 -133.61 0 -216.41 806.99zm7371.6 -687.47l0 -119.53 -663.05 0 0 1125.99 131.66 0 0 -490.29 478.14 0 0 -119.53 -478.14 0 0 -396.65 531.39 0zm-1482.37 1006.46l131.74 0 0 -490.29 478.14 0 0 -119.53 -478.14 0 0 -396.65 531.39 0 0 -119.53 -663.13 0 0 1125.99zm-351.8 -414.55c0,202.03 -104.76,313.29 -294.97,313.29 -188.27,0 -292.01,-111.25 -292.01,-313.29l0 -711.44 -131.66 0 0 720.62c0,265.28 158.35,423.67 423.67,423.67 259.23,0 426.72,-166.29 426.72,-423.67l0 -720.62 -131.74 0 0 711.44zm-1021.77 -371.49c0,154.17 -101.49,235.62 -293.49,235.62 -42.08,0 -94.94,-2.86 -130.56,-7.02l0 -445.44c47.22,-10.1 119.43,-11.22 148.79,-11.22 167.23,0 275.27,89.52 275.27,228.06zm140.84 -7.64c0,-212.86 -162.34,-339.94 -434.33,-339.94 -103.36,0 -192.18,9.81 -257.97,18.36l-4.34 0.57 0 1114.7 131.74 0 0 -439.82c36.68,1.43 86.95,2.84 121.42,2.84 25.08,0 48.96,-1.47 72.12,-2.86l295.28 437.68 1.48 2.16 159.8 0 -325.92 -468.24c153.13,-51.49 240.72,-169.77 240.72,-325.44zm-1005.8 220.78c0,292.48 -177.47,467.11 -474.66,467.11 -90.65,0 -146.28,-3.3 -189.96,-11.34l0 -891.68c38.55,-6.82 107.85,-11.37 174.71,-11.37 302.2,0 489.91,171.39 489.91,447.28zm-500.59 -560.72c-98.89,0 -191.49,5.85 -291.41,18.36l-4.34 0.53 0 1105.1 4.47 0.48c85.88,9.05 189.02,18.27 301.95,18.27 436.79,0 632.28,-292.31 632.28,-582.02 0,-270.05 -201.19,-560.72 -642.95,-560.72zm-573.04 571.41c0,263.68 -179.86,462.51 -418.31,462.51 -239.39,0 -419.92,-198.83 -419.92,-462.51 0,-263.67 180.53,-462.51 419.92,-462.51 238.45,0 418.31,198.84 418.31,462.51zm-413.8 -582.07c-317.8,0 -566.76,255.67 -566.76,582.07 0,325.52 244.28,580.52 556.13,580.52 317.84,0 566.83,-254.99 566.83,-580.52 0,-326.4 -244.32,-582.07 -556.21,-582.07zm-805.9 582.07c0,263.68 -179.84,462.51 -418.34,462.51 -239.39,0 -419.89,-198.83 -419.89,-462.51 0,-263.67 180.5,-462.51 419.89,-462.51 238.5,0 418.34,198.84 418.34,462.51zm-413.8 -582.07c-317.84,0 -566.83,255.67 -566.83,582.07 0,325.52 244.32,580.52 556.21,580.52 317.85,0 566.8,-254.99 566.8,-580.52 0,-326.4 -244.27,-582.07 -556.17,-582.07z"/>
   <path class="fil1" d="M4113.74 1983.76c-129.15,-58.85 -186.75,-119.53 -186.75,-196.83 0,-110.03 80.64,-181.17 205.47,-181.17 66.2,0 138.11,24.58 197.36,67.4l5.78 4.16 60.69 -114.67 -4.55 -3.16c-71.1,-49.1 -162.81,-77.24 -251.65,-77.24 -194.73,0 -347.23,136.51 -347.23,310.77 0,139.09 75.29,226.44 268.62,311.65 184.59,81.59 217.06,139.32 217.06,230.42 0,93.92 -63.04,188.71 -203.91,188.71 -81.98,0 -178.89,-35.65 -265.92,-97.82l-5.63 -4.06 -65.57 117.65 4.79 3.16c110.18,72.34 210.78,104.58 326.25,104.58 197.96,0 347.26,-140.1 347.26,-325.95 0,-154.26 -70.59,-233.16 -302.06,-337.58zm5212.82 -142.02c0,153.35 -101.06,234.4 -292.25,234.4 -41.66,0 -93.76,-2.83 -129.32,-6.93l0 -443.29c47.04,-9.9 118.39,-11.03 147.6,-11.03 166.46,0 273.98,89.02 273.98,226.85zm-96.69 318.45c152.66,-51.97 239.99,-170.38 239.99,-326.09 0,-210.44 -166.89,-341.17 -435.56,-341.17 -103.44,0 -192.26,9.79 -258.14,18.34l-5.4 0.7 0 1117.04 134.21 0 0 -439.76c36.54,1.45 86.1,2.78 120.18,2.78 24.82,0 48.54,-1.42 71.48,-2.83l296.72 439.81 162.85 0 -326.34 -468.81zm-1334.73 468.81l665.61 0 0 -121.98 -531.35 0 0 -389.63 478.1 0 0 -122.02 -478.1 0 0 -372.84 531.35 0 0 -121.96 -665.61 0 0 1128.43zm-582.94 -616.44l-314.53 -509.1 -1.78 -2.89 -151.68 0 396.34 627.67 0 500.77 134.21 0 0 -499.24 397.9 -629.2 -148.74 0 -311.72 512zm-899.9 292.34l-325.07 -809.57 -1.57 -3.9 -23.59 0 -325.12 817.96 -217.2 -808.81 -136.13 0 310.84 1146.19 33.19 4.16 343.21 -873.12 347.43 868.66 1.78 4.46 33.27 -4.16 308.62 -1138.4 2.12 -7.79 -136.16 0 -215.64 804.33zm-1243.11 -99.36l-392.38 0 196.22 -457.8 196.17 457.8zm-179.98 -724.78l-27.88 0 -502.54 1139.6 -3.83 8.64 139.95 0 132.47 -309.11 491.24 0 130.9 305.37 1.61 3.73 144.49 0 -504.79 -1144.54 -1.61 -3.7z"/>
   <path class="fil0" d="M1668.84 1703.63c-94.37,0 -188.77,-34.12 -261.55,-81.88l48.89 -127.37c65.97,47.77 145.56,77.32 217.2,77.32 87.57,0 126.24,-51.17 126.24,-109.14 0,-58 -25.03,-94.39 -156.93,-150.11 -145.54,-61.38 -197.88,-136.42 -197.88,-236.5 0,-120.55 100.08,-233.09 274.06,-233.09 80.75,0 160.33,27.25 209.23,60.26l-45.48 125.07c-44.34,-30.69 -110.31,-59.1 -167.16,-59.1 -87.54,0 -128.5,47.73 -128.5,103.46 0,55.72 40.96,88.68 144.43,134.16 164.88,71.65 212.64,138.75 212.64,247.92 0,134.19 -103.48,249.02 -275.18,249.02zm-559.7 0l-22.72 2.23 -259.28 -579.88 -255.83 579.88 -21.62 -2.23 -267.21 -847.16 156.91 0 150.13 525.34 231.95 -532.15 15.91 0 233.11 528.74 147.84 -521.93 154.61 0 -263.79 847.16zm-1109.14 -1663.91l0 2193.38 1124.46 544.47 1124.45 -544.47 0 -2193.38 -2248.91 0z"/>
  </g>
 </g>
</svg>
