<svg xmlns="http://www.w3.org/2000/svg" width="24.398" height="24" viewBox="0 0 24.398 24">
  <g id="Group_1353" data-name="Group 1353" transform="translate(-555 -765)">
    <rect id="Rectangle_1715" data-name="Rectangle 1715" width="24" height="24" transform="translate(555 765)" fill="none"/>
    <g id="Group_1362" data-name="Group 1362">
      <path id="Path_1310" data-name="Path 1310" d="M1613.158,799.709h-6.437a2.658,2.658,0,0,1-2.77-2.683q-.037-4.26,0-8.52a2.685,2.685,0,0,1,2.7-2.577c.831-.011,1.662-.005,2.493,0,.2,0,.315-.02.336-.27a2.609,2.609,0,0,1,2.447-2.46,14.8,14.8,0,0,1,2.741.07,2.536,2.536,0,0,1,2.094,2.251c.026.314.121.426.447.415.731-.024,1.463-.008,2.195-.008a2.683,2.683,0,0,1,2.911,2.817q.04,4.111,0,8.222a2.657,2.657,0,0,1-2.827,2.742Zm7.33-7.713a9.029,9.029,0,0,1-1.682.338c-3.779.029-7.559.013-11.339.017a2.792,2.792,0,0,1-1.484-.4.7.7,0,0,0-.192-.043c-.008.138-.019.247-.019.356q0,2.231,0,4.461c0,.863.33,1.185,1.2,1.186h7.807c1.537,0,3.073,0,4.61,0a.976.976,0,0,0,1.1-1.093q0-1.3,0-2.6Zm-7.33-4.2v0c-2.156,0-4.312,0-6.469,0a.833.833,0,0,0-.907.862,2.139,2.139,0,0,0,.117.653,1.79,1.79,0,0,0,1.908,1.227q5.019,0,10.037,0c.285,0,.571.009.855-.007a1.78,1.78,0,0,0,1.723-1.379.957.957,0,0,0-1.018-1.361Q1616.281,787.788,1613.158,787.791Zm1.769-1.887c-.027-.519-.276-.831-.725-.847-.718-.025-1.438-.026-2.156,0a.721.721,0,0,0-.693.846Z" transform="translate(-1047.933 -16.164)"/>
      <rect id="Rectangle_1716" data-name="Rectangle 1716" width="16" height="10" transform="translate(561 773)" fill="#e4e4e4"/>
      <g id="Path_1312" data-name="Path 1312" transform="translate(-1043.933 -14.165)">
        <path d="M 1609.06640625 800.2092895507813 C 1608.284790039063 800.2092895507813 1607.503295898438 800.209228515625 1606.721801757813 800.2090454101563 C 1605.828369140625 800.2088012695313 1605.006103515625 799.8916015625 1604.406616210938 799.3158569335938 C 1603.798950195313 798.7322998046875 1603.4599609375 797.9207763671875 1603.4521484375 797.0308227539063 C 1603.427734375 794.2503051757813 1603.4267578125 791.3810424804688 1603.448974609375 788.5028686523438 C 1603.462158203125 786.8322143554688 1604.894165039063 785.4536743164063 1606.641357421875 785.4297485351563 C 1606.959594726563 785.4253540039063 1607.301147460938 785.4232177734375 1607.685424804688 785.4232177734375 C 1608.123168945313 785.4232177734375 1608.5673828125 785.4259643554688 1608.9970703125 785.4286499023438 L 1608.999267578125 785.4286499023438 C 1609.20556640625 783.9238891601563 1610.368286132813 782.8133544921875 1611.88623046875 782.7003784179688 C 1612.206176757813 782.676513671875 1612.53955078125 782.6644287109375 1612.877075195313 782.6644287109375 C 1613.463256835938 782.6644287109375 1614.083374023438 782.7008666992188 1614.720336914063 782.7726440429688 C 1615.994262695313 782.916259765625 1617.120727539063 784.1045532226563 1617.252563476563 785.4332275390625 C 1617.514892578125 785.42529296875 1617.799072265625 785.4215698242188 1618.140258789063 785.4215698242188 C 1618.359008789063 785.4215698242188 1618.577880859375 785.4230346679688 1618.796630859375 785.4244995117188 C 1618.998046875 785.4259033203125 1619.199462890625 785.42724609375 1619.40087890625 785.4274291992188 C 1621.453491210938 785.4293823242188 1622.792358398438 786.7296142578125 1622.811767578125 788.7399291992188 C 1622.838500976563 791.4955444335938 1622.838012695313 794.2651977539063 1622.810302734375 796.971923828125 C 1622.790893554688 798.8775634765625 1621.4228515625 800.208740234375 1619.4833984375 800.2090454101563 L 1617.118286132813 800.209228515625 L 1615.138305664063 800.2091674804688 L 1613.158447265625 800.2091064453125 L 1611.112426757813 800.209228515625 L 1609.06640625 800.2092895507813 Z M 1614.77734375 797.4126586914063 C 1615.22412109375 797.4126586914063 1615.671020507813 797.412841796875 1616.117797851563 797.4130859375 C 1616.564453125 797.4132690429688 1617.011108398438 797.4135131835938 1617.457641601563 797.4135131835938 C 1618.1005859375 797.4135131835938 1618.743408203125 797.4130859375 1619.38623046875 797.4115600585938 C 1619.835205078125 797.4104614257813 1619.987060546875 797.260498046875 1619.987915039063 796.8172607421875 C 1619.989135742188 796.2052001953125 1619.988891601563 795.5931396484375 1619.988647460938 794.9811401367188 L 1619.988403320313 794.2159423828125 L 1619.988403320313 792.634033203125 C 1619.609619140625 792.7332763671875 1619.218383789063 792.830078125 1618.809936523438 792.8331909179688 C 1616.733032226563 792.8490600585938 1614.695434570313 792.8511962890625 1612.97607421875 792.8511962890625 C 1612.26123046875 792.8511962890625 1611.54638671875 792.8507690429688 1610.83154296875 792.850341796875 C 1610.116821289063 792.8499145507813 1609.402221679688 792.8494873046875 1608.687744140625 792.8494873046875 C 1608.280883789063 792.8494873046875 1607.87451171875 792.849609375 1607.4677734375 792.8499755859375 C 1607.042724609375 792.8499755859375 1606.642944335938 792.7810668945313 1606.272094726563 792.6444702148438 L 1606.272094726563 792.7509155273438 C 1606.270874023438 794.0538330078125 1606.269775390625 795.401123046875 1606.272583007813 796.7257690429688 C 1606.273193359375 797.0125122070313 1606.316650390625 797.2066650390625 1606.398315429688 797.287353515625 C 1606.48095703125 797.3690795898438 1606.6787109375 797.4122924804688 1606.97021484375 797.412353515625 C 1608.281982421875 797.4126586914063 1609.59423828125 797.4127197265625 1610.906005859375 797.4127197265625 L 1612.841674804688 797.4127197265625 L 1614.77734375 797.4126586914063 Z M 1617.84423828125 790.0390014648438 L 1617.84423828125 790.0390014648438 C 1617.919311523438 790.0390014648438 1617.994384765625 790.03955078125 1618.069580078125 790.0401611328125 C 1618.14208984375 790.0407104492188 1618.214599609375 790.0413208007813 1618.287231445313 790.0413208007813 C 1618.443115234375 790.0413208007813 1618.5615234375 790.03857421875 1618.671142578125 790.0324096679688 C 1619.338989257813 789.9949951171875 1619.754516601563 789.6619262695313 1619.941528320313 789.0142211914063 C 1620.012939453125 788.7664184570313 1620.007080078125 788.5697021484375 1619.9248046875 788.4603271484375 C 1619.843383789063 788.3519287109375 1619.658081054688 788.2920532226563 1619.403076171875 788.291748046875 C 1618.552124023438 788.2908325195313 1617.700805664063 788.2905883789063 1616.849853515625 788.2905883789063 L 1615.004150390625 788.2908325195313 L 1613.658203125 788.2910766601563 L 1613.658203125 788.2911376953125 L 1613.158203125 788.2938232421875 C 1612.580322265625 788.2938232421875 1612.00244140625 788.2935791015625 1611.424682617188 788.2933349609375 C 1610.846923828125 788.2931518554688 1610.269165039063 788.2929077148438 1609.691528320313 788.2929077148438 C 1608.493408203125 788.2929077148438 1607.567993164063 788.2938842773438 1606.69091796875 788.296142578125 C 1606.548950195313 788.2965087890625 1606.43359375 788.33447265625 1606.365966796875 788.4029541015625 C 1606.309326171875 788.4605712890625 1606.281127929688 788.5444946289063 1606.282470703125 788.6524658203125 C 1606.284301757813 788.8109130859375 1606.3154296875 788.9830322265625 1606.372314453125 789.1503295898438 C 1606.513305664063 789.5636596679688 1606.803833007813 790.038330078125 1607.807250976563 790.0386962890625 C 1609.28515625 790.0393676757813 1610.763549804688 790.0396118164063 1612.241577148438 790.0396118164063 C 1613.658081054688 790.0396118164063 1615.074462890625 790.0393676757813 1616.490844726563 790.0391845703125 L 1617.84423828125 790.0390014648438 Z" stroke="none"/>
        <path d="M 1609.06640625 799.7092895507813 C 1610.430297851563 799.7092895507813 1611.79443359375 799.7091064453125 1613.158447265625 799.7091064453125 C 1614.478393554688 799.7091064453125 1615.79833984375 799.709228515625 1617.118286132813 799.709228515625 C 1617.906616210938 799.709228515625 1618.694946289063 799.709228515625 1619.483276367188 799.7090454101563 C 1621.137939453125 799.7088012695313 1622.29345703125 798.623046875 1622.310302734375 796.966796875 C 1622.33837890625 794.226318359375 1622.33837890625 791.4852294921875 1622.311767578125 788.7447509765625 C 1622.294921875 786.99853515625 1621.155883789063 785.9290771484375 1619.400390625 785.9274291992188 C 1618.98046875 785.9270629882813 1618.560302734375 785.9215698242188 1618.140258789063 785.9215698242188 C 1617.82861328125 785.9215698242188 1617.516967773438 785.924560546875 1617.20556640625 785.9349365234375 C 1617.191284179688 785.9354248046875 1617.177490234375 785.9356689453125 1617.1640625 785.9356689453125 C 1616.871459960938 785.9356689453125 1616.782836914063 785.82080078125 1616.758422851563 785.520263671875 C 1616.669921875 784.4338989257813 1615.745361328125 783.391357421875 1614.664306640625 783.2694702148438 C 1614.07373046875 783.2029418945313 1613.474365234375 783.1644287109375 1612.877075195313 783.1644287109375 C 1612.557983398438 783.1644287109375 1612.239501953125 783.1754150390625 1611.92333984375 783.198974609375 C 1610.555908203125 783.30078125 1609.5859375 784.3258056640625 1609.476806640625 785.6591796875 C 1609.456787109375 785.903564453125 1609.343017578125 785.9296264648438 1609.155517578125 785.9296264648438 C 1609.150756835938 785.9296264648438 1609.14599609375 785.9295654296875 1609.14111328125 785.9295654296875 C 1608.655883789063 785.9265747070313 1608.170654296875 785.9232177734375 1607.685424804688 785.9232177734375 C 1607.339721679688 785.9232177734375 1606.993896484375 785.9249267578125 1606.648193359375 785.9296875 C 1605.18603515625 785.94970703125 1603.960083007813 787.092041015625 1603.948974609375 788.5067138671875 C 1603.927001953125 791.346435546875 1603.92724609375 794.1867065429688 1603.9521484375 797.0264892578125 C 1603.9658203125 798.593505859375 1605.150634765625 799.7086181640625 1606.721923828125 799.7090454101563 C 1607.50341796875 799.709228515625 1608.284790039063 799.7092895507813 1609.06640625 799.7092895507813 M 1614.77734375 797.9126586914063 C 1613.48681640625 797.9126586914063 1612.196655273438 797.9127197265625 1610.906005859375 797.9127197265625 C 1609.594116210938 797.9127197265625 1608.281982421875 797.9126586914063 1606.970092773438 797.912353515625 C 1606.10302734375 797.912109375 1605.774291992188 797.589599609375 1605.772583007813 796.726806640625 C 1605.769409179688 795.23974609375 1605.771240234375 793.7525634765625 1605.7724609375 792.2654418945313 C 1605.7724609375 792.1568603515625 1605.78369140625 792.04833984375 1605.791259765625 791.9098510742188 C 1605.874267578125 791.9273681640625 1605.937622070313 791.9251708984375 1605.983032226563 791.9527587890625 C 1606.439331054688 792.22900390625 1606.932250976563 792.3499755859375 1607.46484375 792.3499755859375 C 1607.465576171875 792.3499755859375 1607.466552734375 792.3499755859375 1607.46728515625 792.3499755859375 C 1607.874267578125 792.349609375 1608.28076171875 792.3494873046875 1608.687744140625 792.3494873046875 C 1610.117065429688 792.3494873046875 1611.546630859375 792.3511962890625 1612.97607421875 792.3511962890625 C 1614.91943359375 792.3511962890625 1616.862915039063 792.3480224609375 1618.80615234375 792.3331909179688 C 1619.352905273438 792.3290405273438 1619.898071289063 792.1195678710938 1620.488403320313 791.9956665039063 C 1620.488403320313 792.6849365234375 1620.488403320313 793.450439453125 1620.488403320313 794.2159423828125 C 1620.488403320313 795.0833129882813 1620.489624023438 795.9508056640625 1620.487915039063 796.8182373046875 C 1620.486450195313 797.538330078125 1620.11669921875 797.9097900390625 1619.387451171875 797.9115600585938 C 1618.744140625 797.9130859375 1618.100952148438 797.9135131835938 1617.457641601563 797.9135131835938 C 1616.564331054688 797.9135131835938 1615.670776367188 797.9126586914063 1614.77734375 797.9126586914063 M 1617.84423828125 790.5390014648438 C 1615.9765625 790.5392456054688 1614.109252929688 790.5396118164063 1612.241577148438 790.5396118164063 C 1610.763549804688 790.5396118164063 1609.285034179688 790.5393676757813 1607.807006835938 790.5386962890625 C 1606.8134765625 790.538330078125 1606.180053710938 790.1356201171875 1605.899047851563 789.3115234375 C 1605.828369140625 789.10400390625 1605.785034179688 788.8770751953125 1605.782470703125 788.6583862304688 C 1605.7763671875 788.1427612304688 1606.140380859375 787.7975463867188 1606.689697265625 787.796142578125 C 1607.6904296875 787.7935791015625 1608.69091796875 787.7929077148438 1609.691528320313 787.7929077148438 C 1610.847045898438 787.7929077148438 1612.002685546875 787.7938232421875 1613.158203125 787.7938232421875 L 1613.158203125 787.7911376953125 C 1614.388916015625 787.7911376953125 1615.619262695313 787.7905883789063 1616.849853515625 787.7905883789063 C 1617.701049804688 787.7905883789063 1618.552490234375 787.7908325195313 1619.403686523438 787.791748046875 C 1620.266479492188 787.792724609375 1620.661010742188 788.323974609375 1620.421875 789.15283203125 C 1620.17724609375 790.0004272460938 1619.581420898438 790.482177734375 1618.699096679688 790.5316162109375 C 1618.562133789063 790.539306640625 1618.424682617188 790.5413208007813 1618.287231445313 790.5413208007813 C 1618.139526367188 790.5413208007813 1617.991821289063 790.5390014648438 1617.84423828125 790.5390014648438 M 1613.126586914063 785.0390014648438 C 1613.485107421875 785.0390014648438 1613.843627929688 785.0453491210938 1614.20166015625 785.057861328125 C 1614.651123046875 785.0736083984375 1614.900146484375 785.3858642578125 1614.9267578125 785.904541015625 L 1611.3525390625 785.904541015625 C 1611.322265625 785.42626953125 1611.589233398438 785.0753784179688 1612.045288085938 785.05859375 C 1612.4052734375 785.04541015625 1612.765869140625 785.0390014648438 1613.126586914063 785.0390014648438 M 1609.06640625 800.7092895507813 C 1608.284790039063 800.7092895507813 1607.503295898438 800.709228515625 1606.7216796875 800.7090454101563 C 1604.590942382813 800.70849609375 1602.970458984375 799.1290893554688 1602.9521484375 797.0352172851563 C 1602.927734375 794.251953125 1602.9267578125 791.3799438476563 1602.948974609375 788.4989624023438 C 1602.964233398438 786.5584716796875 1604.617553710938 784.9573974609375 1606.634521484375 784.9298095703125 C 1606.954833984375 784.9253540039063 1607.298706054688 784.9232177734375 1607.685424804688 784.9232177734375 C 1607.98583984375 784.9232177734375 1608.288940429688 784.9244995117188 1608.588256835938 784.9262084960938 C 1608.97412109375 783.4081420898438 1610.239135742188 782.3215942382813 1611.84912109375 782.2017211914063 C 1612.181274414063 782.177001953125 1612.527099609375 782.1644287109375 1612.877075195313 782.1644287109375 C 1613.481811523438 782.1644287109375 1614.120849609375 782.201904296875 1614.776245117188 782.2757568359375 C 1616.148315429688 782.4304809570313 1617.336547851563 783.55029296875 1617.671630859375 784.92431640625 C 1617.817138671875 784.9224853515625 1617.971923828125 784.9215698242188 1618.140258789063 784.9215698242188 C 1618.360107421875 784.9215698242188 1618.579956054688 784.9230346679688 1618.799682617188 784.924560546875 C 1619.000244140625 784.9259033203125 1619.200805664063 784.92724609375 1619.401245117188 784.9274291992188 C 1621.71826171875 784.9296264648438 1623.289794921875 786.4597778320313 1623.311767578125 788.735107421875 C 1623.338500976563 791.4939575195313 1623.338012695313 794.2669677734375 1623.310302734375 796.97705078125 C 1623.299438476563 798.044677734375 1622.906494140625 799.0045776367188 1622.203979492188 799.6798706054688 C 1621.513671875 800.3433837890625 1620.547485351563 800.7088623046875 1619.4833984375 800.7090454101563 L 1617.118286132813 800.709228515625 L 1615.13818359375 800.7091674804688 L 1613.158447265625 800.7091064453125 L 1611.112426757813 800.709228515625 L 1609.06640625 800.7092895507813 Z M 1614.77734375 796.9126586914063 C 1615.226928710938 796.9126586914063 1615.676391601563 796.912841796875 1616.1259765625 796.9130859375 C 1616.569946289063 796.913330078125 1617.013793945313 796.9135131835938 1617.457641601563 796.9135131835938 C 1618.100219726563 796.9135131835938 1618.742553710938 796.9130859375 1619.385131835938 796.9115600585938 C 1619.42626953125 796.9114379882813 1619.458618164063 796.9091796875 1619.4833984375 796.90625 C 1619.485961914063 796.8831787109375 1619.48779296875 796.8534545898438 1619.487915039063 796.8162231445313 C 1619.489135742188 796.2046508789063 1619.488891601563 795.5929565429688 1619.488647460938 794.9813232421875 L 1619.488403320313 794.2159423828125 L 1619.488403320313 793.2640380859375 C 1619.2724609375 793.30419921875 1619.048828125 793.3313598632813 1618.813720703125 793.3331909179688 C 1616.734619140625 793.3490600585938 1614.696044921875 793.3511962890625 1612.97607421875 793.3511962890625 C 1612.26123046875 793.3511962890625 1611.546264648438 793.3507690429688 1610.831298828125 793.350341796875 C 1610.11669921875 793.3499145507813 1609.402221679688 793.3494873046875 1608.687744140625 793.3494873046875 C 1608.281005859375 793.3494873046875 1607.874755859375 793.349609375 1607.468139648438 793.3499755859375 C 1607.229125976563 793.3499755859375 1606.996704101563 793.3307495117188 1606.771606445313 793.2925415039063 C 1606.770629882813 794.4249267578125 1606.770141601563 795.5833129882813 1606.772583007813 796.7246704101563 C 1606.772705078125 796.8024291992188 1606.776611328125 796.8606567382813 1606.781372070313 796.9030151367188 C 1606.82568359375 796.9081420898438 1606.88720703125 796.912353515625 1606.970336914063 796.912353515625 C 1608.282104492188 796.9126586914063 1609.59423828125 796.9127197265625 1610.906005859375 796.9127197265625 L 1612.841674804688 796.9127197265625 L 1614.77734375 796.9126586914063 Z M 1617.844116210938 789.5390014648438 L 1617.84423828125 789.5390014648438 L 1617.84423828125 789.5390014648438 C 1617.920654296875 789.5390014648438 1617.9970703125 789.53955078125 1618.073486328125 789.5401611328125 C 1618.144653320313 789.5407104492188 1618.215942382813 789.5413208007813 1618.287231445313 789.5413208007813 C 1618.433349609375 789.5413208007813 1618.543212890625 789.538818359375 1618.643188476563 789.533203125 C 1619.0966796875 789.5077514648438 1619.333618164063 789.3172607421875 1619.461059570313 788.8755493164063 C 1619.469970703125 788.8446044921875 1619.476318359375 788.8178100585938 1619.480712890625 788.794921875 C 1619.458740234375 788.7930297851563 1619.432739257813 788.7918090820313 1619.402587890625 788.791748046875 C 1618.5517578125 788.7908325195313 1617.70068359375 788.7905883789063 1616.849853515625 788.7905883789063 L 1615.004272460938 788.7908325195313 L 1614.158203125 788.791015625 L 1614.158203125 788.7911376953125 L 1613.158203125 788.7938232421875 C 1612.580322265625 788.7938232421875 1612.002319335938 788.7935791015625 1611.424438476563 788.7933349609375 C 1610.846801757813 788.7931518554688 1610.269165039063 788.7929077148438 1609.691528320313 788.7929077148438 C 1608.54052734375 788.7929077148438 1607.641845703125 788.7938232421875 1606.796630859375 788.7958984375 C 1606.807373046875 788.85986328125 1606.823974609375 788.92529296875 1606.845703125 788.9891357421875 C 1606.9443359375 789.2784423828125 1607.092163085938 789.5384521484375 1607.807373046875 789.5386962890625 C 1609.285400390625 789.5393676757813 1610.763671875 789.5396118164063 1612.241577148438 789.5396118164063 C 1613.662475585938 789.5396118164063 1615.083129882813 789.5393676757813 1616.50390625 789.5391845703125 L 1617.844116210938 789.5390014648438 Z" stroke="none" fill="#e4e4e4"/>
      </g>
    </g>
  </g>
</svg>
