<svg xmlns="http://www.w3.org/2000/svg" width="42" height="42" viewBox="0 0 42 42"><defs><style>.a{fill:#8b4c1e;stroke:#e09e6d;stroke-miterlimit:10;stroke-width:2px;}.b{fill:#fff;}</style></defs><g transform="translate(74.401 -30.53)"><g transform="translate(-127.901 -53.97)"><circle class="a" cx="20" cy="20" r="20" transform="translate(54.5 85.5)"/></g><g transform="translate(-168.901 -419.97)"><path class="b" d="M205.464,159.317H187.4v-21.7a10.488,10.488,0,0,1,2.149.2,2.241,2.241,0,0,0,.359.066,3.928,3.928,0,0,1,1.912.948.235.235,0,0,1,.077.17c.053,1.075.107,2.151.15,3.227a8.831,8.831,0,0,0,.374,2.7,5.517,5.517,0,0,0,.545,1c.16.258.359.491.536.739a.405.405,0,0,1,.078.195c.03.456.049.912.078,1.368a.3.3,0,0,0,.069.174,9.672,9.672,0,0,0,2.6,2.021,6.856,6.856,0,0,0,1.631.569,1.531,1.531,0,0,1,.45.185c.61.377,1.214.764,1.818,1.151a.646.646,0,0,1,.185.169c.356.524.719,1.042,1.053,1.58.191.308.317.659.5.972a3.956,3.956,0,0,0,.411.531,4.7,4.7,0,0,1,.805,1.318,1.346,1.346,0,0,0,.354.436c.382.367.779.719,1.162,1.084.233.223.452.46.672.7A.905.905,0,0,1,205.464,159.317Z" transform="translate(-80.9 321.532)"/><path class="b" d="M442.691,311.988a8.417,8.417,0,0,0-1.308-1.277c-.261-.24-.494-.505-.761-.736a.728.728,0,0,1-.219-.764,8.774,8.774,0,0,1,1.133-2.786,3.658,3.658,0,0,1,.5-.557.25.25,0,0,1,.173-.078,2.619,2.619,0,0,0,.964-.151,1.538,1.538,0,0,1,1.64.566,3.46,3.46,0,0,1,.731,1.35c.17.506.331,1.018.488,1.526a.419.419,0,0,1,0,.245,8.883,8.883,0,0,1-.925,1.917.526.526,0,0,1-.346.24C444.072,311.645,443.384,311.818,442.691,311.988Z" transform="translate(-318.722 163.64)"/><path class="b" d="M363.09,226.6c.087-.612.167-1.227.27-1.837a1.056,1.056,0,0,1,.2-.419.316.316,0,0,1,.364-.144.12.12,0,0,0,.072,0c.353-.131.633.064.924.207a1.913,1.913,0,0,1,.269.153.754.754,0,0,0,.625.161.718.718,0,0,1,.769.437,1.538,1.538,0,0,1,.092,1.086,7.355,7.355,0,0,1-.267.885,1.881,1.881,0,0,1-.289.391c-.1.129-.18.24-.28.359-.161.189-.323.377-.492.558a1.017,1.017,0,0,1-.912.249c-.051,0-.1-.06-.144-.1-.27-.254-.527-.525-.811-.762a1.245,1.245,0,0,1-.338-.911,2.428,2.428,0,0,1,0-.31Z" transform="translate(-246.065 240.181)"/><path class="b" d="M299.63,196.794v-.878a1.693,1.693,0,0,0,0-.291,1.023,1.023,0,0,1,.32-.871,1.423,1.423,0,0,1,1.313-.225,1,1,0,0,1,.63.586.573.573,0,0,1-.082.519c-.134.195-.286.376-.435.56a.27.27,0,0,1-.12.08q-.757.258-1.516.509A.6.6,0,0,1,299.63,196.794Z" transform="translate(-186.394 268.099)"/><path class="b" d="M405.152,309.12c.19.572.374,1.123.564,1.692-.37.186-.734.376-1.106.548-.064.029-.165-.009-.246-.028a1.96,1.96,0,0,1-.834-.464.231.231,0,0,1-.069-.152q-.01-.464,0-.93a.167.167,0,0,1,.087-.126C404.075,309.478,404.6,309.3,405.152,309.12Z" transform="translate(-284.012 160.306)"/><path class="b" d="M309.548,255.324c-.359-.359-.722-.719-1.078-1.087a.552.552,0,0,1,0-.633,4.057,4.057,0,0,1,.464-.483.141.141,0,0,1,.128-.011,7.626,7.626,0,0,1,1,.511,2.055,2.055,0,0,1,.8.922.186.186,0,0,1-.059.168C310.393,254.92,309.978,255.118,309.548,255.324Z" transform="translate(-194.625 212.97)"/></g></g></svg>