<svg id="ewpointer" xmlns="http://www.w3.org/2000/svg" width="19.8" height="52.1" viewBox="0 0 19.8 52.1">
  <g id="Group_318" data-name="Group 318" transform="translate(111.444 385)">
    <path id="Path_261" data-name="Path 261" d="M-102-372v39.1" fill="none" stroke="#6f6e8e" stroke-width="1"/>
  </g>
  <path id="Path_262" data-name="Path 262" d="M9.9,1A8.9,8.9,0,1,1,1,9.9H1A8.92,8.92,0,0,1,9.9,1Z" fill="#5694ba" stroke="#5baee2" stroke-miterlimit="10" stroke-width="2"/>
  <g id="Group_319" data-name="Group 319">
    <path id="Path_263" data-name="Path 263" d="M14.9,8.1a.215.215,0,0,0-.2-.2h-.3a.2.2,0,0,0,0,.4h.3A.215.215,0,0,0,14.9,8.1Z" fill="#fff"/>
    <path id="Path_264" data-name="Path 264" d="M11.7,4.9a.215.215,0,0,0-.2.2h0v.3a.2.2,0,1,0,.4,0h0V5.1C11.8,5,11.8,4.9,11.7,4.9Z" fill="#fff"/>
    <path id="Path_265" data-name="Path 265" d="M13.9,6.4l.3-.3c.1-.1.1-.2,0-.2-.1-.1-.2-.1-.2,0l-.3.3c-.1.1-.1.2,0,.2,0,.1.1.1.2,0Z" fill="#fff"/>
    <path id="Path_266" data-name="Path 266" d="M12,13.3a4.875,4.875,0,0,0-.4-1.1V12a.1.1,0,0,0-.1-.1.1.1,0,0,1-.1.1v.2a3.582,3.582,0,0,0-.4,1.1.5.5,0,0,0,1,0Z" fill="#fff"/>
    <path id="Path_267" data-name="Path 267" d="M6.5,12.3h1a1.546,1.546,0,0,0,.3-.6.187.187,0,0,1,.3,0h0c0,.1.2.3.3.6h2.3c.2-.3.3-.6.5-.9a.187.187,0,0,1,.3,0h0a4.053,4.053,0,0,1,.5.9h.9a1.831,1.831,0,0,0,1.8-1.6,1.693,1.693,0,0,0-.9-1.4.1.1,0,0,1-.1-.1h-1c-.1,0-.2,0-.2-.1a1.412,1.412,0,0,0-1.4-1,1.268,1.268,0,0,0-.6.1h-.1l-.1-.1c0-.1-.1-.1-.1-.2h0c0-.1-.1-.1-.1-.2h0a.1.1,0,0,0-.1-.1h0l-.1-.1a2.062,2.062,0,0,0-1.4-.7,1.966,1.966,0,0,0-2,1.8,1.268,1.268,0,0,0,.1.6v.2l-.1.1a1.91,1.91,0,0,0-1.4.7,1.2,1.2,0,0,0,0,1.4A1.75,1.75,0,0,0,6.5,12.3Z" fill="#fff"/>
    <path id="Path_268" data-name="Path 268" d="M10.4,14.4A7.838,7.838,0,0,0,9.9,13a5.783,5.783,0,0,0-.5,1.4.5.5,0,1,0,1,0Z" fill="#fff"/>
    <path id="Path_269" data-name="Path 269" d="M10.4,7.2h0c.1.1.1.1.1.2v.1l.1.1h0c.1,0,.3-.1.4-.1h.1a1.761,1.761,0,0,1,1.6,1.1h.8c.1,0,.1,0,.2.1h0a1.7,1.7,0,0,0,.1-.7,2.006,2.006,0,0,0-2-2,1.965,1.965,0,0,0-1.7.9l.3.3Z" fill="#fff"/>
    <path id="Path_270" data-name="Path 270" d="M6,12.1,7.9,12,6,14.1l3.6-2.6H7.8l1.4-1.2h-1Z" fill="#5694ba" stroke="#fff" stroke-miterlimit="10" stroke-width="0.185"/>
  </g>
</svg>
