<svg xmlns="http://www.w3.org/2000/svg" width="42" height="42" viewBox="0 0 42 42"><defs><style>.a,.c{fill:#5694ba;stroke-miterlimit:10;}.a{stroke:#5baee2;stroke-width:2px;}.b{fill:#fff;}.c{stroke:#fff;stroke-width:0.464px;}</style></defs><g transform="translate(-1032.89 -295.486)"><ellipse class="a" cx="20" cy="20" rx="20" ry="20" transform="translate(1033.89 296.486)"/><path class="b" d="M1065.261,310.233a.428.428,0,0,0-.428-.428h-.856a.428.428,0,1,0,0,.856h.856A.428.428,0,0,0,1065.261,310.233Z" transform="translate(0.843 1.497)"/><path class="b" d="M1056.478,301.306a.427.427,0,0,0-.428.428v.855a.428.428,0,1,0,.856,0v-.855A.428.428,0,0,0,1056.478,301.306Z" transform="translate(1.561 2.357)"/><path class="b" d="M1062.521,305.33l.856-.856a.428.428,0,0,0-.605-.605l-.856.856a.428.428,0,1,0,.605.605Z" transform="translate(1.018 2.115)"/><path class="b" d="M1057.118,324.234a8.325,8.325,0,0,0-.935-2.686c-.031-.064-.062-.128-.092-.189l-.081-.163c-.06-.119-.119-.234-.175-.341-.057.108-.116.223-.176.341l-.082.165c-.031.063-.062.125-.092.189a8.333,8.333,0,0,0-.934,2.684,1.284,1.284,0,0,0,2.568,0Z" transform="translate(1.764 0.526)"/><path class="b" d="M1042.061,320h2.615c.393-.752.762-1.358.847-1.5a.5.5,0,0,1,.8,0c.085.137.455.743.848,1.5h5.885a23.7,23.7,0,0,1,1.266-2.353.5.5,0,0,1,.8,0,23.809,23.809,0,0,1,1.265,2.353h2.213a4.26,4.26,0,0,0,4.457-4.017,3.967,3.967,0,0,0-2.24-3.481c-.1-.05-.2-.1-.3-.139l-.067-.029c-.1-.042-.209-.081-.317-.117l-.059-.02c-.108-.034-.219-.064-.331-.092l-.063-.015c-.108-.025-.219-.046-.329-.063l-.09-.012q-.155-.022-.309-.033c-.046,0-.1-.005-.146-.007-.089,0-.178-.008-.267-.007-.068,0-.135.005-.2.009s-.139.005-.208.012c-.139.013-.278.031-.417.056a.463.463,0,0,1-.543-.334,3.5,3.5,0,0,0-3.492-2.575,3.872,3.872,0,0,0-1.491.3.5.5,0,0,1-.367.006.447.447,0,0,1-.257-.244,4.1,4.1,0,0,0-.234-.473c-.016-.028-.031-.056-.046-.086a4.446,4.446,0,0,0-.284-.416c-.024-.032-.049-.062-.074-.093a4.672,4.672,0,0,0-.334-.372c-.03-.028-.061-.055-.093-.086-.1-.091-.2-.177-.3-.261a5.225,5.225,0,0,0-3.226-1.1,4.688,4.688,0,0,0-4.9,4.421,4.011,4.011,0,0,0,.286,1.476.4.4,0,0,1-.052.387.475.475,0,0,1-.37.187,3.97,3.97,0,0,0-3.391,1.842,3.372,3.372,0,0,0,.06,3.633A3.992,3.992,0,0,0,1042.061,320Z" transform="translate(3 2.147)"/><path class="b" d="M1052.617,327.181a10.717,10.717,0,0,0-1.284-3.383,10.72,10.72,0,0,0-1.284,3.383,1.284,1.284,0,0,0,2.568,0Z" transform="translate(2.206 0.245)"/><path class="b" d="M1052.632,307.3c.038.05.075.1.112.154.053.075.1.151.151.228.029.046.06.092.086.14.067.114.128.231.188.351.006.011.013.021.018.033a4.147,4.147,0,0,1,.984-.2c.111-.009.224-.014.338-.014a4.149,4.149,0,0,1,3.963,2.863,4.964,4.964,0,0,1,1.111-.006.321.321,0,0,1,.049.008c.16.018.318.043.473.075l.045.012c.157.034.31.075.461.124l.062.022c.143.048.282.1.42.163.009,0,.02.007.029.012a5.065,5.065,0,0,0,.339-1.822,5.132,5.132,0,0,0-9.426-2.812,5.394,5.394,0,0,1,.445.481C1052.532,307.172,1052.584,307.234,1052.632,307.3Z" transform="translate(2.256 2.142)"/><path class="c" d="M1040.615,320.529l4.793-.151-4.644,5.174,8.994-6.469-4.6-.1,3.478-3.015-2.381.075Z" transform="translate(3.246 1.182)"/></g></svg>