<svg id="fpointer" xmlns="http://www.w3.org/2000/svg" width="17.8" height="51.1" viewBox="0 0 17.8 51.1">
  <g id="Group_323" data-name="Group 323" transform="translate(111.444 385)">
    <path id="Path_274" data-name="Path 274" d="M-103-373v39.1" fill="none" stroke="#6f6e8e" stroke-width="1"/>
  </g>
  <g id="Group_324" data-name="Group 324" transform="translate(103 373)">
    <path id="Path_275" data-name="Path 275" d="M-94.1-356.2a7.917,7.917,0,0,1-7.9-7.9,7.853,7.853,0,0,1,7.9-7.9,7.917,7.917,0,0,1,7.9,7.9A7.917,7.917,0,0,1-94.1-356.2Z" fill="#f48231"/>
    <path id="Path_276" data-name="Path 276" d="M-94.1-371a6.914,6.914,0,0,0-6.9,6.9,6.914,6.914,0,0,0,6.9,6.9,6.914,6.914,0,0,0,6.9-6.9,6.914,6.914,0,0,0-6.9-6.9m0-2a8.92,8.92,0,0,1,8.9,8.9,8.92,8.92,0,0,1-8.9,8.9,8.92,8.92,0,0,1-8.9-8.9A8.92,8.92,0,0,1-94.1-373Z" fill="#ffaa6e"/>
  </g>
  <path id="Path_277" data-name="Path 277" d="M8.8,3.7a6.724,6.724,0,0,1,1.9,2.4,3.851,3.851,0,0,1-.1,2.6,1.024,1.024,0,0,0,.5-.6,5.019,5.019,0,0,0,.2-1.2,6.141,6.141,0,0,1,1.4,2.5,3.637,3.637,0,0,1-.4,2.9A5.047,5.047,0,0,1,10,14.1a4.624,4.624,0,0,0,.4-2.6A3.6,3.6,0,0,0,9.1,9.4a4.124,4.124,0,0,0-1.4,2.1,5.665,5.665,0,0,0,.1,2.6s-2.7-1.6-2.9-3.6c-.2-2.1,2.2-4.2,2.2-5-.1-.5.5.7.7,1.2a2.438,2.438,0,0,1,0,1.2s.3-1,.6-1.9A18.457,18.457,0,0,0,8.8,3.7Z" fill="#fff"/>
</svg>
