<svg id="Symbol_11_2" data-name="Symbol 11 – 2" xmlns="http://www.w3.org/2000/svg" width="18" height="18" viewBox="0 0 18 18">
  <ellipse id="Ellipse_56" data-name="Ellipse 56" cx="9" cy="9" rx="9" ry="9" transform="translate(0 0)" fill="#fff"/>
  <path id="Path_745" data-name="Path 745" d="M0,0H18V18H0Z" fill="#fff"/>
  <g id="_134195" data-name="134195" transform="translate(4.667 4.667)">
    <path id="Path_739" data-name="Path 739" d="M36.37.1a.17.17,0,0,0-.156-.1h-2.03a.169.169,0,1,0,0,.338h1.622L33.049,3.095a.169.169,0,1,0,.239.239L36.045.578V2.2a.169.169,0,0,0,.338,0V.169A.171.171,0,0,0,36.37.1Z" transform="translate(41.967 3.384) rotate(180)"/>
    <path id="Path_740" data-name="Path 740" d="M3.095,33.049.338,35.806V34.184a.169.169,0,0,0-.338,0v2.03a.17.17,0,0,0,.169.169H2.2a.169.169,0,1,0,0-.338H.578l2.756-2.756a.169.169,0,1,0-.239-.239Z" transform="translate(3.384 41.966) rotate(180)"/>
    <path id="Path_741" data-name="Path 741" d="M.169,2.369A.169.169,0,0,0,.338,2.2V.578L3.095,3.334a.169.169,0,0,0,.239-.239L.578.338H2.2A.169.169,0,1,0,2.2,0H.169A.17.17,0,0,0,0,.169V2.2A.169.169,0,0,0,.169,2.369Z" transform="translate(3.384 3.383) rotate(180)"/>
    <path id="Path_742" data-name="Path 742" d="M36.214,34.014a.169.169,0,0,0-.169.169v1.622l-2.756-2.757a.169.169,0,1,0-.239.239l2.756,2.757H34.184a.169.169,0,1,0,0,.338h2.03a.17.17,0,0,0,.169-.169v-2.03A.169.169,0,0,0,36.214,34.014Z" transform="translate(41.967 41.965) rotate(180)"/>
  </g>
</svg>
