<svg id="opointer" xmlns="http://www.w3.org/2000/svg" width="17.8" height="51.1" viewBox="0 0 17.8 51.1">
  <g id="Group_327" data-name="Group 327" transform="translate(-103 -373)">
    <g id="Group_325" data-name="Group 325" transform="translate(111.444 385)">
      <path id="Path_278" data-name="Path 278" d="M0,0V39.1" stroke="#6f6e8e" stroke-width="1"/>
    </g>
    <g id="Group_326" data-name="Group 326" transform="translate(103 373)">
      <path id="Path_279" data-name="Path 279" d="M8.9,16.8a7.9,7.9,0,1,1,7.9-7.9A7.917,7.917,0,0,1,8.9,16.8Z" fill="#2e687e"/>
      <path id="Path_280" data-name="Path 280" d="M8.9,2a6.9,6.9,0,1,0,6.9,6.9A6.914,6.914,0,0,0,8.9,2m0-2A8.9,8.9,0,1,1,0,8.9,8.92,8.92,0,0,1,8.9,0Z" fill="#8ecde5"/>
    </g>
  </g>
  <g id="Group_328" data-name="Group 328">
    <path id="Path_281" data-name="Path 281" d="M2.2,8.6,5,5.8l8.6,7.9a6.564,6.564,0,0,1-4.7,2A6.75,6.75,0,0,1,3.5,13a4.061,4.061,0,0,1-1-2.1A6.083,6.083,0,0,1,2.2,8.6Z" fill="#c9eaf7" stroke="#fff" stroke-width="0.357"/>
    <path id="Path_282" data-name="Path 282" d="M3.1,7.7s.4.7.9.7.6-.6,1-.6C5.5,7.8,5.5,9,6,9S7.1,7.9,7.1,7.9,5.2,5.7,4.9,5.7,3.1,7.7,3.1,7.7Z" fill="#fff" stroke="#fff" stroke-width="0.357"/>
    <circle id="Ellipse_13" data-name="Ellipse 13" cx="0.4" cy="0.4" r="0.4" transform="translate(8.5 6.9)" fill="#fff"/>
    <ellipse id="Ellipse_14" data-name="Ellipse 14" cx="1.6" cy="1.5" rx="1.6" ry="1.5" transform="translate(11.2 8.2)" fill="#fff"/>
    <circle id="Ellipse_15" data-name="Ellipse 15" cx="0.5" cy="0.5" r="0.5" transform="translate(13.3 11.8)" fill="#fff"/>
    <circle id="Ellipse_16" data-name="Ellipse 16" cx="0.7" cy="0.7" r="0.7" transform="translate(9.4 8)" fill="#fff"/>
    <circle id="Ellipse_17" data-name="Ellipse 17" cx="0.3" cy="0.3" r="0.3" transform="translate(10 6.7)" fill="#fff"/>
    <circle id="Ellipse_18" data-name="Ellipse 18" cx="0.3" cy="0.3" r="0.3" transform="translate(13.9 11)" fill="#fff"/>
  </g>
</svg>
