<svg xmlns="http://www.w3.org/2000/svg" width="39.999" height="39.999" viewBox="0 0 39.999 39.999"><defs><style>.a{fill:#2e687e;stroke:#8ecde5;stroke-width:2px;}.b{fill:#c9eaf7;}.b,.c{stroke:#fff;}.c,.d{fill:#fff;}.e,.g{fill:none;}.f,.h{stroke:none;}.h{fill:#8ecde5;}</style></defs><g transform="translate(-1228 -601)"><g class="a" transform="translate(1228 601)"><circle class="f" cx="20" cy="20" r="20"/><circle class="g" cx="20" cy="20" r="19"/></g><path class="b" d="M3219.518,627.338l7.636-8.206,23.54,23.085a19.945,19.945,0,0,1-12.983,5.146c-8.109.181-14.383-7.644-14.383-7.644a24.23,24.23,0,0,1-2.87-5.852A25.2,25.2,0,0,1,3219.518,627.338Z" transform="translate(-1990.663 -7.354)"/><path class="c" d="M3223.932,623.337s1.184,1.921,2.5,1.921,1.6-1.7,2.838-1.7,1.459,3.486,2.771,3.486,2.889-3.175,2.889-3.175-5.239-6.316-6.036-6.312S3223.932,623.337,3223.932,623.337Z" transform="translate(-1992.59 -6.043)"/><circle class="d" cx="1.127" cy="1.127" r="1.127" transform="translate(1246.028 615.084)"/><circle class="d" cx="4.225" cy="4.225" r="4.225" transform="translate(1253.351 619.028)"/><circle class="d" cx="1.408" cy="1.408" r="1.408" transform="translate(1258.985 629.168)"/><circle class="d" cx="1.972" cy="1.972" r="1.972" transform="translate(1248.281 618.464)"/><circle class="d" cx="0.845" cy="0.845" r="0.845" transform="translate(1249.971 614.521)"/><circle class="d" cx="0.845" cy="0.845" r="0.845" transform="translate(1260.675 626.915)"/><g class="e" transform="translate(1228 601)"><path class="f" d="M20,0A20,20,0,1,1,0,20,20,20,0,0,1,20,0Z"/><path class="h" d="M 19.99951171875 2 C 15.1916618347168 2 10.67159080505371 3.872280120849609 7.271930694580078 7.271930694580078 C 3.872280120849609 10.67159080505371 2 15.1916618347168 2 19.99951171875 C 2 24.80735206604004 3.872280120849609 29.32743072509766 7.271930694580078 32.72708129882812 C 10.67159080505371 36.12674331665039 15.19167137145996 37.9990234375 19.99951171875 37.9990234375 C 24.80735206604004 37.9990234375 29.32742309570312 36.12674331665039 32.72708129882812 32.72708129882812 C 36.12674331665039 29.32742309570312 37.9990234375 24.80735206604004 37.9990234375 19.99951171875 C 37.9990234375 15.19167137145996 36.12674331665039 10.67159080505371 32.72708129882812 7.271930694580078 C 29.32743072509766 3.872280120849609 24.80735206604004 2 19.99951171875 2 M 19.99951171875 0 C 31.04493141174316 0 39.9990234375 8.954082489013672 39.9990234375 19.99951171875 C 39.9990234375 31.04493141174316 31.04493141174316 39.9990234375 19.99951171875 39.9990234375 C 8.954082489013672 39.9990234375 0 31.04493141174316 0 19.99951171875 C 0 8.954082489013672 8.954082489013672 0 19.99951171875 0 Z"/></g></g></svg>