<svg xmlns="http://www.w3.org/2000/svg" width="19.801" height="52.1" viewBox="0 0 19.801 52.1">
  <g id="srpointer" transform="translate(-0.1)">
    <g id="Group_329" data-name="Group 329" transform="translate(111.444 385)">
      <path id="Path_283" data-name="Path 283" d="M-102-372v39.1" fill="none" stroke="#6f6e8e" stroke-width="1"/>
    </g>
    <path id="Path_284" data-name="Path 284" d="M10,1A8.9,8.9,0,1,1,1.1,9.9h0A8.92,8.92,0,0,1,10,1Z" fill="#36b25c" stroke="#74d993" stroke-miterlimit="10" stroke-width="2"/>
    <g id="Group_330" data-name="Group 330">
      <path id="Path_285" data-name="Path 285" d="M7.4,15v-.8c0-.1.1-.3.2-.3A14.629,14.629,0,0,1,8.9,13c.1,0,.1-.1.1-.2v-.9c0-.1-.1-.2-.1-.3V10.4a.817.817,0,0,1,.9-.8,2.2,2.2,0,0,1,.8.1.909.909,0,0,1,.4.8v.9c0,.2,0,.3-.2.4v.9c0,.1,0,.1.1.2.5.3.9.6,1.3.8a.55.55,0,0,1,.3.5v.6Z" fill="#fff"/>
      <path id="Path_286" data-name="Path 286" d="M14.8,14.9H12.7v-.6a.909.909,0,0,0-.4-.8c-.1-.1-.3-.2-.4-.3l-.1-.1v-.5c0-.2,0-.3-.1-.4,0-.1-.1-.1-.1-.2v-.9a.789.789,0,0,1,.8-.8h0a1.268,1.268,0,0,1,.6.1.822.822,0,0,1,.4.6v.9c0,.1,0,.2-.1.2-.1.1-.1.1-.1.2v.6c0,.1,0,.2.1.2a6.726,6.726,0,0,1,1.1.7.55.55,0,0,1,.3.5A1.759,1.759,0,0,1,14.8,14.9Z" fill="#fff"/>
      <path id="Path_287" data-name="Path 287" d="M5,15.1v-.7c0-.1.1-.2.2-.3a6.726,6.726,0,0,1,1.1-.7c.1,0,.1-.1.1-.2v-.5c0-.2,0-.3-.1-.4,0-.1-.1-.1-.1-.2v-.9a.684.684,0,0,1,.7-.7.778.778,0,0,1,.8.2c.2,0,.3.3.3.5v.9c0,.1-.1.2-.1.3v.8c0,.1,0,.1-.1.2s-.3.2-.4.3a.67.67,0,0,0-.4.7v.7Z" fill="#fff"/>
      <path id="Path_288" data-name="Path 288" d="M12.5,7.4c-.1,0-.3.1-.3.2s.1.3.2.3.3-.1.3-.2h0C12.7,7.5,12.6,7.4,12.5,7.4Z" fill="#fff"/>
      <path id="Path_289" data-name="Path 289" d="M12.4,6.4c-.1,0-.2.1-.2.3h0l.1.5c0,.1.1.1.2.1a.1.1,0,0,0,.1-.1l.1-.5V6.6c0-.2-.1-.3-.3-.2Z" fill="#fff"/>
      <path id="Path_290" data-name="Path 290" d="M14.9,6.8a2.464,2.464,0,0,0-2.4-2.1h-.3a2.378,2.378,0,0,0-2,2.9,4.875,4.875,0,0,0,.4,1.1c.2.3.2.3,0,.6l-.2.2-.1.1a.349.349,0,0,0,.2.1,1.884,1.884,0,0,0,.8-.2.187.187,0,0,1,.3,0,2.464,2.464,0,0,0,1.7.2A2.754,2.754,0,0,0,14.9,6.8ZM13.8,8c-.1.1-.2.2-.3.2h-2a.265.265,0,0,1-.3-.3h0V7.7l1-1.6c.2-.1.3-.2.5-.1l.1.1,1,1.6Z" fill="#fff"/>
    </g>
  </g>
</svg>
