<svg id="vpointer" xmlns="http://www.w3.org/2000/svg" width="19.8" height="52.1" viewBox="0 0 19.8 52.1">
  <g id="Group_337" data-name="Group 337" transform="translate(111.444 385)">
    <path id="Path_303" data-name="Path 303" d="M-102-372v39.1" stroke="#6f6e8e" stroke-width="1"/>
  </g>
  <path id="Path_304" data-name="Path 304" d="M9.9,1A8.9,8.9,0,1,1,1,9.9H1A8.92,8.92,0,0,1,9.9,1Z" fill="#6d24c3" stroke="#b077f4" stroke-miterlimit="10" stroke-width="2"/>
  <g id="Group_340" data-name="Group 340" transform="translate(1001.271 46.521)">
    <g id="Group_338" data-name="Group 338" transform="translate(0 1.408)">
      <path id="Path_305" data-name="Path 305" d="M-990.5-35.1a39.262,39.262,0,0,1,.8-4.6,1.3,1.3,0,0,0,1.3-1.1,1.11,1.11,0,0,0-1.1-1.1,2.535,2.535,0,0,0-3.6,0h0a1.11,1.11,0,0,0-1.1,1.1,1.229,1.229,0,0,0,1.3,1.1,29.242,29.242,0,0,1,.8,4.6" fill="#fff"/>
      <path id="Path_306" data-name="Path 306" d="M-993.2-37.3c.2.1-1.2,3.5-2.5,4a.1.1,0,0,0-.1.1c.1.1.1.1.2.1h8.3c.1,0,.2,0,.2-.1s0-.1-.1-.1c-1.2-.6-2.7-3.9-2.8-3.9s-.3,1.3-.9,1.3Z" fill="#fff" stroke="#6d24c3" stroke-width="0.214"/>
    </g>
    <g id="Group_339" data-name="Group 339" transform="translate(1.943)">
      <path id="Path_307" data-name="Path 307" d="M-991.9-37.8a.9.9,0,0,0,.5.1,1.473,1.473,0,0,0,1.5-1.5,1.514,1.514,0,0,0-1.3-1.5,2.706,2.706,0,0,0-3.8-.5,1.2,1.2,0,0,0-.5.5,1.463,1.463,0,0,0-1.3,1.8,1.514,1.514,0,0,0,1.5,1.3,1.268,1.268,0,0,0,.6-.1Z" fill="#fff"/>
    </g>
  </g>
</svg>
