<svg xmlns="http://www.w3.org/2000/svg" width="42" height="42" viewBox="0 0 42 42"><defs><style>.a{fill:#b41b9c;stroke:#f75ade;stroke-miterlimit:10;stroke-width:2px;}.b{fill:#fff;}</style></defs><g transform="translate(-1039.099 -37.03)"><circle class="a" cx="20" cy="20" r="20" transform="translate(1040.099 38.03)"/><g transform="translate(820.06 -118.348)"><path class="b" d="M316.311,313.5a1.475,1.475,0,0,0-1.422,1.52,1.431,1.431,0,0,0,1.489,1.389,1.484,1.484,0,0,0,1.386-1.518A1.423,1.423,0,0,0,316.311,313.5Z" transform="translate(-76.549 -138.741)"/><path class="b" d="M245.958,174.89a6.409,6.409,0,0,0-1.785-3.289,6.112,6.112,0,0,0-3.141-1.639c-.429-.085-.869-.111-1.346-.169a5.791,5.791,0,0,1,.12-.589,3.993,3.993,0,0,1,2.226-2.391,7.223,7.223,0,0,1,2.854-.683c.169-.009.282-.062.29-.248s-.12-.2-.255-.215a10.339,10.339,0,0,0-3.522.148,10.144,10.144,0,0,0-7.332,5.95,8.42,8.42,0,0,0-.017,7.092,6.055,6.055,0,0,0,4.312,3.57c.481.118.985.144,1.525.219a6.149,6.149,0,0,1-.14.679,4.038,4.038,0,0,1-2.24,2.383,7.211,7.211,0,0,1-2.854.677c-.164.009-.294.062-.3.244s.137.2.284.222a9.975,9.975,0,0,0,3.1-.071,10.26,10.26,0,0,0,6.676-4.132,9.6,9.6,0,0,0,1.8-4.835A9.442,9.442,0,0,0,245.958,174.89Zm-1.3,3.833a5.129,5.129,0,0,1-.393,1.536c-.03.07-.062.134-.149.109s-.1-.1-.079-.179a3.691,3.691,0,0,0,.062-1.5,2.065,2.065,0,0,0-.864-1.433,3.213,3.213,0,0,0-.315-.163c-.112.256-.194.5-.319.721a3.1,3.1,0,0,1-2.355,1.629,4.3,4.3,0,0,1-3.49-.989,5.189,5.189,0,0,1-1.917-4.433,5.286,5.286,0,0,1,.414-1.755c.026-.062.055-.124.141-.1s.1.092.081.177a3.716,3.716,0,0,0-.062,1.5,2.045,2.045,0,0,0,.869,1.427,2.978,2.978,0,0,0,.273.14c.094-.226.168-.44.269-.64a3.119,3.119,0,0,1,1.241-1.32,3.266,3.266,0,0,1,1.866-.424,4.831,4.831,0,0,1,1.478.28,4.911,4.911,0,0,1,2.133,1.551A5.243,5.243,0,0,1,244.659,178.723Z" transform="translate(0 0)"/></g></g></svg>