<svg id="winspointer" xmlns="http://www.w3.org/2000/svg" width="19.8" height="52.1" viewBox="0 0 19.8 52.1">
  <g id="Group_341" data-name="Group 341" transform="translate(111.444 385)">
    <path id="Path_308" data-name="Path 308" d="M-102-372v39.1" stroke="#6f6e8e" stroke-width="1"/>
  </g>
  <path id="Path_309" data-name="Path 309" d="M9.9,1A8.9,8.9,0,1,1,1,9.9H1A8.92,8.92,0,0,1,9.9,1Z" fill="#888787" stroke="#a9a9a9" stroke-width="2"/>
  <g id="Group_342" data-name="Group 342">
    <path id="Path_310" data-name="Path 310" d="M14.6,12.9h-3a2.92,2.92,0,0,1-.9-.2,2.126,2.126,0,0,0-1.9.1,1.2,1.2,0,0,1-1.4,0,1.986,1.986,0,0,0-2.1,0c-.1,0-.1.1-.2.1a.319.319,0,0,0-.3.3v1.3a.265.265,0,0,0,.3.3h9.4a.265.265,0,0,0,.3-.3h0V13.3c.1-.2,0-.4-.2-.4Z" fill="#fff"/>
    <path id="Path_311" data-name="Path 311" d="M14.3,8.4H9.4a.86.86,0,0,1-.8-.8.86.86,0,0,1,.8-.8.86.86,0,0,1,.8.8h0a.3.3,0,0,0,.6,0h0A1.415,1.415,0,0,0,9.5,6.2,1.415,1.415,0,0,0,8.1,7.5,1.415,1.415,0,0,0,9.4,8.9h4.9a.319.319,0,0,0,.3-.3C14.6,8.5,14.5,8.4,14.3,8.4Z" fill="#fff"/>
    <path id="Path_312" data-name="Path 312" d="M14.4,9.7H10.8a1.1,1.1,0,1,0,0,2.2,1.136,1.136,0,0,0,.8-.3.3.3,0,0,0,0-.4h0a.3.3,0,0,0-.4,0,.566.566,0,0,1-.8-.8.52.52,0,0,1,.4-.2h3.6a.319.319,0,0,0,.3-.3c0-.1-.2-.2-.3-.2Z" fill="#fff"/>
    <path id="Path_313" data-name="Path 313" d="M14.4,7.3H12.2a.319.319,0,0,1-.3-.3.265.265,0,0,1,.3-.3c.1,0,.1,0,.2.1a.283.283,0,0,0,.4-.4h0a.778.778,0,0,0-1.1,1.1.735.735,0,0,0,.6.2h2.2a.319.319,0,0,0,.3-.3c-.1,0-.2-.1-.4-.1Z" fill="#fff"/>
    <path id="Path_314" data-name="Path 314" d="M7.5,10.2H6.9l.3-.5c.1-.1,0-.3-.1-.4h0c-.1-.1-.3,0-.4.1l-.3.5-.3-.5a.192.192,0,0,0-.3-.1c-.2.1-.2.2-.1.4l.3.5H5.4a.3.3,0,1,0,0,.6H6l-.3.5c-.1.1,0,.3.1.4h0c.1.1.3,0,.4-.1h0l.2-.6.3.5c.1.1.2.2.4.1.1-.1.2-.2.1-.4h0l-.3-.5h.6a.319.319,0,0,0,.3-.3c0-.1-.1-.2-.3-.2Z" fill="#fff"/>
    <path id="Path_315" data-name="Path 315" d="M7.6,5.6H7.3V5.3a.3.3,0,0,0-.6,0v.3H6.5a.3.3,0,0,0,0,.6h.3v.3a.319.319,0,0,0,.3.3.265.265,0,0,0,.3-.3V6.2h.3A.319.319,0,0,0,8,5.9c-.2-.2-.3-.3-.4-.3Z" fill="#fff"/>
    <circle id="Ellipse_19" data-name="Ellipse 19" cx="0.3" cy="0.3" r="0.3" transform="translate(8.4 9.6)" fill="#fff"/>
    <circle id="Ellipse_20" data-name="Ellipse 20" cx="0.3" cy="0.3" r="0.3" transform="translate(13.6 5)" fill="#fff"/>
    <circle id="Ellipse_21" data-name="Ellipse 21" cx="0.3" cy="0.3" r="0.3" transform="translate(12.4 10.7)" fill="#fff"/>
  </g>
</svg>
