<svg xmlns="http://www.w3.org/2000/svg" width="24.958" height="24" viewBox="0 0 24.958 24">
  <g id="Group_1354" data-name="Group 1354" transform="translate(-555 -765)">
    <rect id="Rectangle_1715" data-name="Rectangle 1715" width="24" height="24" transform="translate(555 765)" fill="none"/>
    <path id="Path_1310" data-name="Path 1310" d="M1613.158,799.709h-6.437a2.658,2.658,0,0,1-2.77-2.683q-.037-4.26,0-8.52a2.685,2.685,0,0,1,2.7-2.577c.831-.011,1.662-.005,2.493,0,.2,0,.315-.02.336-.27a2.609,2.609,0,0,1,2.447-2.46,14.8,14.8,0,0,1,2.741.07,2.536,2.536,0,0,1,2.094,2.251c.026.314.121.426.447.415.731-.024,1.463-.008,2.195-.008a2.683,2.683,0,0,1,2.911,2.817q.04,4.111,0,8.222a2.657,2.657,0,0,1-2.827,2.742Zm7.33-7.713a9.029,9.029,0,0,1-1.682.338c-3.779.029-7.559.013-11.339.017a2.792,2.792,0,0,1-1.484-.4.7.7,0,0,0-.192-.043c-.008.138-.019.247-.019.356q0,2.231,0,4.461c0,.863.33,1.185,1.2,1.186h7.807c1.537,0,3.073,0,4.61,0a.976.976,0,0,0,1.1-1.093q0-1.3,0-2.6Zm-7.33-4.2v0c-2.156,0-4.312,0-6.469,0a.833.833,0,0,0-.907.862,2.139,2.139,0,0,0,.117.653,1.79,1.79,0,0,0,1.908,1.227q5.019,0,10.037,0c.285,0,.571.009.855-.007a1.78,1.78,0,0,0,1.723-1.379.957.957,0,0,0-1.018-1.361Q1616.281,787.788,1613.158,787.791Zm1.769-1.887c-.027-.519-.276-.831-.725-.847-.718-.025-1.438-.026-2.156,0a.721.721,0,0,0-.693.846Z" transform="translate(-1045.933 -14.164)"/>
    <g id="Group_1355" data-name="Group 1355" transform="translate(570.681 768)">
      <g id="Group_1293" data-name="Group 1293" transform="translate(0 0)">
        <circle id="Notification_Badge" data-name="Notification Badge" cx="5" cy="5" r="5" transform="translate(-0.723 -0.723)" fill="#ffc06a"/>
      </g>
    </g>
  </g>
</svg>
