<svg id="wspointer" xmlns="http://www.w3.org/2000/svg" width="19.8" height="52.1" viewBox="0 0 19.8 52.1">
  <g id="Group_343" data-name="Group 343" transform="translate(111.444 385)">
    <path id="Path_316" data-name="Path 316" d="M-102-372v39.1" stroke="#6f6e8e" stroke-width="1"/>
  </g>
  <path id="Path_317" data-name="Path 317" d="M9.9,1A8.9,8.9,0,1,1,1,9.9H1A8.92,8.92,0,0,1,9.9,1Z" fill="#b41b9c" stroke="#f75ade" stroke-miterlimit="10" stroke-width="2"/>
  <g id="Group_344" data-name="Group 344" transform="translate(820.06 -118.348)">
    <path id="Path_318" data-name="Path 318" d="M-810.2,127.4a.86.86,0,0,0-.8.8.86.86,0,0,0,.8.8h0a.709.709,0,0,0,.7-.8A.66.66,0,0,0-810.2,127.4Z" fill="#fff"/>
    <path id="Path_319" data-name="Path 319" d="M-806.8,127.5a3.247,3.247,0,0,0-1-1.8,3.152,3.152,0,0,0-1.7-.9c-.2,0-.5-.1-.7-.1a.367.367,0,0,1,.1-.3,1.952,1.952,0,0,1,1.2-1.3,4.191,4.191,0,0,1,1.5-.4c.1,0,.2,0,.2-.1a.1.1,0,0,0-.1-.1,4.084,4.084,0,0,0-1.9.1,5.893,5.893,0,0,0-4,3.2,4.236,4.236,0,0,0,0,3.8,3.157,3.157,0,0,0,2.3,1.9,2.2,2.2,0,0,0,.8.1.756.756,0,0,1-.1.4,2.19,2.19,0,0,1-1.2,1.3,4.191,4.191,0,0,1-1.5.4c-.1,0-.2,0-.2.1s.1.1.2.1a4.854,4.854,0,0,0,1.7,0,5.306,5.306,0,0,0,3.6-2.2,5.238,5.238,0,0,0,1-2.6A7.77,7.77,0,0,0-806.8,127.5Zm-.7,2.1a1.883,1.883,0,0,1-.2.8.1.1,0,0,1-.1.1c-.1,0-.1-.1,0-.1a1.1,1.1,0,0,0,0-.8,1.02,1.02,0,0,0-.5-.8c-.1,0-.1-.1-.2-.1-.1.1-.1.3-.2.4a1.761,1.761,0,0,1-1.3.9,2.506,2.506,0,0,1-1.9-.5,2.8,2.8,0,0,1-1-2.4,2.919,2.919,0,0,1,.2-.9.1.1,0,0,1,.1-.1c.1,0,.1,0,0,.1a1.1,1.1,0,0,0,0,.8,1.02,1.02,0,0,0,.5.8l.1.1a.367.367,0,0,0,.1-.3,1.575,1.575,0,0,1,.7-.7,1.232,1.232,0,0,1,1-.2,2.353,2.353,0,0,1,.8.2,3.6,3.6,0,0,1,1.2.8,2.074,2.074,0,0,1,.7,1.9Z" fill="#fff"/>
  </g>
</svg>
