<svg xmlns:xlink="http://www.w3.org/1999/xlink" xmlns="http://www.w3.org/2000/svg" class="Icon--small Icon AbstractThemeableRectangularButton-leftIcon BellIcon" focusable="false" viewBox="0 0 32 32" width="32"  height="32" ><path d="M30,20.6c-1.3-1.1-2-2.7-2-4.4v-3.9C28,5.7,22.7,0.1,16.2,0C13,0,9.9,1.2,7.6,3.4C5.3,5.7,4,8.8,4,12v4.2  c0,1.7-0.7,3.3-2,4.4c-1,0.9-1.3,2.4-0.7,3.7c0.5,1,1.6,1.7,2.8,1.7h23.7c1.2,0,2.3-0.7,2.8-1.7C31.3,23,31,21.6,30,20.6z M20.3,28  h-8.5c-0.4,0-0.7,0.2-0.9,0.6s-0.1,0.8,0.1,1.1c0.7,0.8,2.6,2.4,5,2.4s4.3-1.5,5-2.4c0.2-0.3,0.3-0.7,0.1-1.1  C21,28.2,20.6,28,20.3,28z" fill="#6F7782"></path></svg>