<svg xmlns:xlink="http://www.w3.org/1999/xlink" xmlns="http://www.w3.org/2000/svg" class="CompoundIcon--xsmall CompoundIcon XCircleCompoundIcon" focusable="false" viewBox="0 0 24 24" width="24"  height="24" ><path d="M23,12c0,6.1-4.9,11-11,11S1,18.1,1,12S5.9,1,12,1S23,5.9,23,12z" class="CompoundIcon-outer" stroke="#6F7782" fill="#6F7782" stroke-width="2px"></path><path d="M13.4,12l4.3-4.3c0.4-0.4,0.4-1,0-1.4s-1-0.4-1.4,0L12,10.6L7.7,6.3c-0.4-0.4-1-0.4-1.4,0s-0.4,1,0,1.4l4.3,4.3l-4.3,4.3c-0.4,0.4-0.4,1,0,1.4C6.5,17.9,6.7,18,7,18s0.5-0.1,0.7-0.3l4.3-4.3l4.3,4.3c0.2,0.2,0.5,0.3,0.7,0.3s0.5-0.1,0.7-0.3c0.4-0.4,0.4-1,0-1.4L13.4,12z" class="CompoundIcon-inner" fill="#FFFFFF" stroke-width="2px"></path></svg>