<svg xmlns="http://www.w3.org/2000/svg" width="24" height="24" fill="none" viewBox="0 0 24 24">
    <path fill="#B51919" fill-rule="evenodd" d="M12 20c4.418 0 8-3.582 8-8s-3.582-8-8-8-8 3.582-8 8 3.582 8 8 8z" clip-rule="evenodd"/>
    <path fill="#fff" fill-rule="evenodd" d="M9.421 8.474c-.261-.262-.686-.262-.947 0-.262.261-.262.686 0 .947l2.579 2.58-2.58 2.578c-.26.261-.26.686 0 .947.262.262.687.262.948 0l2.58-2.578 2.578 2.578c.261.262.686.262.947 0 .262-.261.262-.686 0-.947L12.948 12l2.578-2.579c.262-.261.262-.686 0-.947-.261-.262-.686-.262-.947 0L12 11.053l-2.579-2.58z" clip-rule="evenodd"/>
</svg>
