<svg xmlns="http://www.w3.org/2000/svg" width="24" height="24" fill="none" viewBox="0 0 24 24">
    <path fill="#2EA7A5" fill-rule="evenodd" d="M12 20c4.418 0 8-3.582 8-8s-3.582-8-8-8-8 3.582-8 8 3.582 8 8 8z" clip-rule="evenodd"/>
    <path fill="#fff" fill-rule="evenodd" d="M15.118 9.374c.275-.313.755-.337 1.058-.052.288.271.31.722.05 1.02l-5.096 5.847c-.067.076-.185.081-.258.01L8.13 13.53c-.298-.29-.32-.761-.05-1.078.293-.346.816-.374 1.145-.062l1.781 1.689 4.112-4.704z" clip-rule="evenodd"/>
</svg>
