<svg id="Icon_Alerts" data-name="Icon/Alerts" xmlns="http://www.w3.org/2000/svg" width="28" height="28" viewBox="0 0 28 28" opacity = "0.5">
  <rect id="Mask" width="28" height="28" fill="gray" opacity="0"/>
  <g id="Default" transform="translate(7 7)">
    <path id="Subtraction_7" data-name="Subtraction 7" d="M-237.636,2826.5h-12.728a.616.616,0,0,1-.637-.647.616.616,0,0,1,.637-.647,1.284,1.284,0,0,0,1.273-1.293v-3.236A5.14,5.14,0,0,1-244,2815.5a5.14,5.14,0,0,1,5.09,5.177v3.236a1.285,1.285,0,0,0,1.273,1.293.615.615,0,0,1,.636.647A.615.615,0,0,1-237.636,2826.5Zm-6.364-9.6a3.758,3.758,0,0,0-3.673,3.83v3.192A2.637,2.637,0,0,1-248,2825.2h8a2.648,2.648,0,0,1-.328-1.277v-3.192A3.758,3.758,0,0,0-244,2816.9Z" transform="translate(251 -2815.5)" fill="#fff" stroke="rgba(0,0,0,0)" stroke-miterlimit="10" stroke-width="1"/>
    <path id="Path" d="M3.413,1A1.909,1.909,0,0,1,1.75,2,1.909,1.909,0,0,1,.087,1,.668.668,0,0,1,.642,0H2.858A.668.668,0,0,1,3.413,1Z" transform="translate(5 12)" fill="#fff"/>
  </g>
</svg>
