<svg id="Icon_Exposures" data-name="Icon/Exposures" xmlns="http://www.w3.org/2000/svg" width="28" height="28" viewBox="0 0 28 28" opacity = "0.5">
  <rect id="Mask" width="28" height="28" fill="gray" opacity="0"/>
  <g id="Default" transform="translate(5 7)">
    <path id="Combined_Shape" data-name="Combined Shape" d="M12.308,13.906l-4-4.752A5.621,5.621,0,0,1,8.6,1.626a5.5,5.5,0,0,1,7.806,0,5.619,5.619,0,0,1,.29,7.528l-3.98,4.751a.267.267,0,0,1-.2.1A.263.263,0,0,1,12.308,13.906ZM9.266,2.255a4.733,4.733,0,0,0-.239,6.326l3.482,4.134,3.462-4.133a4.734,4.734,0,0,0-.239-6.327,4.55,4.55,0,0,0-6.466,0ZM.681,14a.64.64,0,0,1-.325-.09C.338,13.9.319,13.885.3,13.872a.7.7,0,0,1-.1-.092.78.78,0,0,1-.2-.53v-2.5A.719.719,0,0,1,.681,10H8.018a.218.218,0,0,1,.172.086l2.754,3.5a.264.264,0,0,1,.034.268.225.225,0,0,1-.205.145Zm.052-1.912v1.1h8.8L7.709,10.773H.734ZM1.9,12.4a.4.4,0,0,1,0-.8H3.1a.4.4,0,1,1,0,.8ZM.634,9a.565.565,0,0,1-.3-.09C.314,8.9.3,8.886.28,8.872A.6.6,0,0,1,.186,8.78.811.811,0,0,1,0,8.25V5.75A.7.7,0,0,1,.634,5h5.3a.194.194,0,0,1,.148.071.271.271,0,0,1,.063.184,6.6,6.6,0,0,0,.821,3.356.289.289,0,0,1,.008.262A.2.2,0,0,1,6.79,9ZM.7,7.16V8.3H5.951a8.58,8.58,0,0,1-.5-2.5H.7ZM10,5.5A2.5,2.5,0,1,1,12.5,8,2.5,2.5,0,0,1,10,5.5Zm1,0A1.5,1.5,0,1,0,12.5,4,1.5,1.5,0,0,0,11,5.5ZM1.9,7.4a.4.4,0,0,1,0-.8H3.1a.4.4,0,1,1,0,.8ZM.637,4a.566.566,0,0,1-.3-.09C.316,3.9.3,3.885.282,3.872A.648.648,0,0,1,.187,3.78.81.81,0,0,1,0,3.25V.75A.7.7,0,0,1,.637,0H7.788a.211.211,0,0,1,.2.157.278.278,0,0,1-.062.285c-.087.087-.176.183-.264.283A6.209,6.209,0,0,0,6.265,3.8a.223.223,0,0,1-.208.2ZM.709,2.16V3.3H5.537A8.076,8.076,0,0,1,6.486.8H.709ZM1.9,2.4a.4.4,0,0,1,0-.8H3.1a.4.4,0,1,1,0,.8Z" fill="#fff"/>
  </g>
</svg>
