<svg id="Icon_Home" data-name="Icon/Home" xmlns="http://www.w3.org/2000/svg" width="28" height="28" viewBox="0 0 28 28" opacity = "0.5">
  <rect id="Rectangle" width="28" height="28" fill="gray" opacity="0"/>
  <g id="Default">
    <g id="Path" transform="translate(6 7)" fill="none" stroke-miterlimit="10">
      <path d="M8.71.243a1.159,1.159,0,0,0-1.42,0L.386,5.708A.981.981,0,0,0,.059,6.818a1.091,1.091,0,0,0,.986.693v5.465A1.063,1.063,0,0,0,2.143,14H13.857a1.063,1.063,0,0,0,1.1-1.025V7.514a1.091,1.091,0,0,0,.986-.693.981.981,0,0,0-.327-1.111Z" stroke="none"/>
      <path d="M 8 0.9999990463256836 C 7.964930534362793 0.9999990463256836 7.932210922241211 1.009979248046875 7.910480499267578 1.027159690856934 L 1.011953353881836 6.487492561340332 C 1.027098655700684 6.498188018798828 1.053401947021484 6.510241508483887 1.090210914611816 6.511909484863281 L 2.044910430908203 6.555199146270752 L 2.044910430908203 7.510879516601562 L 2.044910430908203 12.96489334106445 C 2.055224418640137 12.97632026672363 2.086737632751465 12.99999904632568 2.14309024810791 12.99999904632568 L 13.85691070556641 12.99999904632568 C 13.91327571868896 12.99999904632568 13.94478130340576 12.97631072998047 13.95508003234863 12.96489238739014 L 13.95508003234863 7.514289379119873 L 13.95508003234863 6.558589458465576 L 14.90980052947998 6.515319347381592 C 14.94689178466797 6.513638496398926 14.97331428527832 6.501413345336914 14.98823738098145 6.491041660308838 L 8.089780807495117 1.027369499206543 C 8.067790985107422 1.009979248046875 8.035070419311523 0.9999990463256836 8 0.9999990463256836 M 8 -9.5367431640625e-07 C 8.252645492553711 -9.5367431640625e-07 8.505290985107422 0.08101940155029297 8.710149765014648 0.2430591583251953 L 15.61399078369141 5.710999488830566 C 15.95683002471924 5.983539581298828 16.08654022216797 6.423759460449219 15.94121074676514 6.821519374847412 C 15.79587078094482 7.219269275665283 15.40496063232422 7.493899345397949 14.95508003234863 7.514289379119873 L 14.95508003234863 12.97539901733398 C 14.95508003234863 13.54126930236816 14.46342086791992 13.99999904632568 13.85691070556641 13.99999904632568 L 2.14309024810791 13.99999904632568 C 1.536580085754395 13.99999904632568 1.044910430908203 13.54126930236816 1.044910430908203 12.97539901733398 L 1.044910430908203 7.510879516601562 C 0.5950403213500977 7.490479469299316 0.2041206359863281 7.21584939956665 0.05879020690917969 6.818099498748779 C -0.08653926849365234 6.42034912109375 0.04317092895507812 5.980119228363037 0.3860101699829102 5.707589149475098 L 7.289850234985352 0.2430591583251953 C 7.494710922241211 0.08101940155029297 7.747355461120605 -9.5367431640625e-07 8 -9.5367431640625e-07 Z" stroke="none" fill="#fff"/>
    </g>
    <rect id="Rectangle-2" data-name="Rectangle" width="2" height="4" rx="0.6" transform="translate(13 15)" fill="#fff"/>
  </g>
</svg>
