<svg id="Icon_Models" data-name="Icon/Models" xmlns="http://www.w3.org/2000/svg" width="28" height="28" viewBox="0 0 28 28" opacity = "0.5">
  <rect id="Rectangle" width="28" height="28" fill="gray" opacity="0.004"/>
  <path id="Default" d="M8.033,16h0a7.88,7.88,0,0,1-3.113-.637A8.194,8.194,0,0,1,.636,11.082,7.894,7.894,0,0,1,0,7.969,8.009,8.009,0,0,1,8.027,0h.012A7.964,7.964,0,0,1,16,7.969,8.011,8.011,0,0,1,8.033,16ZM2.379,12.25a7.113,7.113,0,0,0,4.1,2.641A9.276,9.276,0,0,1,4.534,12.25Zm9.149-.006h0A9.313,9.313,0,0,1,9.59,14.887a7.059,7.059,0,0,0,4.044-2.643H11.528Zm-3.028,0V14.6a8.5,8.5,0,0,0,1.961-2.354Zm-2.9.006A8.465,8.465,0,0,0,7.563,14.6V12.25Zm6.9-3.819a9.679,9.679,0,0,1-.575,2.881h2.3a7.079,7.079,0,0,0,.816-2.881H12.5Zm-4,0v2.881h2.419a8.612,8.612,0,0,0,.646-2.881Zm-4,.006a8.6,8.6,0,0,0,.647,2.875H7.563V8.438Zm-3.544,0a7.015,7.015,0,0,0,.823,2.875H4.134a9.661,9.661,0,0,1-.575-2.875Zm10.976-3.75A9.648,9.648,0,0,1,12.5,7.5h2.545a6.942,6.942,0,0,0-.8-2.812Zm-3.429,0V7.5h3.062a8.606,8.606,0,0,0-.643-2.812Zm-3.355,0A8.605,8.605,0,0,0,4.5,7.5H7.563V4.687H5.144ZM1.759,4.681A6.919,6.919,0,0,0,.954,7.5H3.562a9.679,9.679,0,0,1,.572-2.819ZM9.588,1.111h0a9.292,9.292,0,0,1,1.94,2.639h2.125A7.052,7.052,0,0,0,9.588,1.112ZM8.5,1.4V3.75h1.961A8.486,8.486,0,0,0,8.5,1.4Zm-.937,0A8.483,8.483,0,0,0,5.6,3.75h1.96ZM6.478,1.108A7.112,7.112,0,0,0,2.36,3.75H4.534A9.3,9.3,0,0,1,6.478,1.108Z" transform="matrix(0.985, -0.174, 0.174, 0.985, 4.732, 7.511)" fill="#fefefe"/>
</svg>
