<svg id="Icon_Reports" data-name="Icon/Reports" xmlns="http://www.w3.org/2000/svg" width="28" height="28" viewBox="0 0 28 28" opacity = "0.5">
  <rect id="Rectangle" width="28" height="28" fill="gray" opacity="0"/>
  <path id="Default" d="M2,14a1.959,1.959,0,0,1-2-1.91V1.909A1.958,1.958,0,0,1,2,0H7.4a.675.675,0,0,1,.4.183l3.977,3.8A.623.623,0,0,1,12,4.438q0,.008,0,.016v7.636A1.959,1.959,0,0,1,10,14ZM1.3,1.814V12.185a.664.664,0,0,0,.679.648h8.143a.664.664,0,0,0,.679-.648V5.091H7.333a.653.653,0,0,1-.667-.637V1.166H1.978A.664.664,0,0,0,1.3,1.814Zm6.7,2H9.9L8,2ZM3.15,10.907a.6.6,0,1,1,0-1.2h5.2a.6.6,0,1,1,0,1.2Zm0-2.614a.6.6,0,1,1,0-1.2h5.2a.6.6,0,1,1,0,1.2Zm.1-2.614a.687.687,0,0,1-.75-.6.687.687,0,0,1,.75-.6h1.5a.687.687,0,0,1,.75.6.687.687,0,0,1-.75.6Z" transform="translate(8 7)" fill="#fff"/>
</svg>
