<svg id="Icon_Support" data-name="Icon/Support" xmlns="http://www.w3.org/2000/svg" width="28" height="28" viewBox="0 0 28 28" opacity="0.5">
  <rect id="Mask" width="28" height="28" fill="gray" opacity="0"/>
  <g id="Default" transform="translate(6 6)">
    <path id="Subtraction_8" data-name="Subtraction 8" d="M-320,2790a8.009,8.009,0,0,1-8-8,8.009,8.009,0,0,1,8-8,8.009,8.009,0,0,1,8,8A8.009,8.009,0,0,1-320,2790Zm.1-14.75a6.758,6.758,0,0,0-6.75,6.75,6.758,6.758,0,0,0,6.75,6.75,6.758,6.758,0,0,0,6.75-6.75A6.758,6.758,0,0,0-319.9,2775.25Z" transform="translate(328 -2774)" fill="#fff"/>
    <path id="Union_4" data-name="Union 4" d="M-326.4,2781.366a.637.637,0,0,1,.64-.634.637.637,0,0,1,.64.634.637.637,0,0,1-.64.634A.637.637,0,0,1-326.4,2781.366Zm0-1.616a.6.6,0,0,1,.009-.1c.005-1.071.268-1.3.268-1.3a4.736,4.736,0,0,1,1.138-.9c.973-.892.732-2.153-.6-2.256a1.211,1.211,0,0,0-.853.349,1.481,1.481,0,0,0-.337.651h-.007a.6.6,0,0,1-.607.593.6.6,0,0,1-.608-.6.616.616,0,0,1,.014-.132,2.494,2.494,0,0,1,.692-1.355,2.425,2.425,0,0,1,1.7-.7,2.31,2.31,0,0,1,1.809,3.848c-.334.4-.873.66-1.138.994a1.066,1.066,0,0,0-.261.839h-.007a.562.562,0,0,1,0,.069.606.606,0,0,1-.61.6A.606.606,0,0,1-326.4,2779.75Z" transform="translate(333.5 -2769.8)" fill="#fff"/>
  </g>
</svg>
