<svg xmlns="http://www.w3.org/2000/svg" xmlns:xlink="http://www.w3.org/1999/xlink" width="43" height="43" viewBox="0 0 43 43"><defs><style>.a{fill:#f48231;}.b{fill:#fff;}.c,.d{stroke:none;}.d{fill:#ffaa6e;}.e{filter:url(#a);}</style><filter id="a" x="0" y="0" width="43" height="43" filterUnits="userSpaceOnUse"><feOffset dy="1" input="SourceAlpha"/><feGaussianBlur stdDeviation="0.5" result="b"/><feFlood flood-opacity="0.161"/><feComposite operator="in" in2="b"/><feComposite in="SourceGraphic"/></filter></defs><g transform="translate(1.5 0.5)"><g class="e" transform="matrix(1, 0, 0, 1, -1.5, -0.5)"><g class="a" transform="translate(1.5 0.5)"><path class="c" d="M 20 39 C 17.43457984924316 39 14.94641971588135 38.49777984619141 12.60464954376221 37.50730133056641 C 10.34226036071777 36.55038833618164 8.310219764709473 35.18027877807617 6.564970016479492 33.43503189086914 C 4.819719791412354 31.68977928161621 3.449609994888306 29.65773963928223 2.492700099945068 27.39534950256348 C 1.502220034599304 25.05357933044434 1 22.5654296875 1 20 C 1 17.43457984924316 1.502220034599304 14.94641971588135 2.492700099945068 12.60464954376221 C 3.449609994888306 10.34226036071777 4.819719791412354 8.310219764709473 6.564970016479492 6.564970016479492 C 8.310219764709473 4.819719791412354 10.34226036071777 3.449609994888306 12.60464954376221 2.492700099945068 C 14.94641971588135 1.502220034599304 17.43457984924316 1 20 1 C 22.5654296875 1 25.05357933044434 1.502220034599304 27.39534950256348 2.492700099945068 C 29.65773963928223 3.449609994888306 31.68977928161621 4.819719791412354 33.43503189086914 6.564970016479492 C 35.18027877807617 8.310219764709473 36.55038833618164 10.34226036071777 37.50730133056641 12.60464954376221 C 38.49777984619141 14.94641971588135 39 17.43457984924316 39 20 C 39 22.5654296875 38.49777984619141 25.05357933044434 37.50730133056641 27.39534950256348 C 36.55038833618164 29.65773963928223 35.18027877807617 31.68977928161621 33.43503189086914 33.43503189086914 C 31.68977928161621 35.18027877807617 29.65773963928223 36.55038833618164 27.39534950256348 37.50730133056641 C 25.05357933044434 38.49777984619141 22.5654296875 39 20 39 Z"/><path class="d" d="M 20 2 C 15.19202995300293 2 10.67182922363281 3.872329711914062 7.272079467773438 7.272079467773438 C 3.872329711914062 10.67182922363281 2 15.19202995300293 2 20 C 2 24.80797958374023 3.872329711914062 29.32817077636719 7.272079467773438 32.72792053222656 C 10.67182922363281 36.12767028808594 15.19202995300293 38 20 38 C 24.80797958374023 38 29.32817077636719 36.12767028808594 32.72792053222656 32.72792053222656 C 36.12767028808594 29.32817077636719 38 24.80797958374023 38 20 C 38 15.19202995300293 36.12767028808594 10.67182922363281 32.72792053222656 7.272079467773438 C 29.32817077636719 3.872329711914062 24.80797958374023 2 20 2 M 20 0 C 31.04570007324219 0 40 8.954309463500977 40 20 C 40 31.04570007324219 31.04570007324219 40 20 40 C 8.954309463500977 40 0 31.04570007324219 0 20 C 0 8.954309463500977 8.954309463500977 0 20 0 Z"/></g></g><path class="b" d="M2356.431,464.717s2.964,2.446,3.868,4.986a7.828,7.828,0,0,1-.253,5.175,2.049,2.049,0,0,0,1.016-1.166,9.643,9.643,0,0,0,.427-2.473s2.385,2.672,2.893,5.006a7,7,0,0,1-.883,5.99c-1.356,2.4-4.783,3.619-4.783,3.619a9.992,9.992,0,0,0,.781-5.277,7.951,7.951,0,0,0-2.568-4.332,10.28,10.28,0,0,0-2.948,4.332,10.56,10.56,0,0,0,.3,5.277s-5.488-3.161-5.855-7.41,4.567-8.5,4.4-10.061c-.1-.951,1.086,1.407,1.453,2.5a4.523,4.523,0,0,1,0,2.357s.705-2,1.243-3.926A42.746,42.746,0,0,0,2356.431,464.717Z" transform="translate(-2336.188 -455)"/></g></svg>