<svg xmlns="http://www.w3.org/2000/svg" width="42" height="42" viewBox="0 0 42 42"><defs><style>.a{fill:#36b25c;stroke:#74d993;stroke-miterlimit:10;stroke-width:2px;}.b{fill:#fff;}</style></defs><g transform="translate(-1066.522 -127.024)"><circle class="a" cx="20" cy="20" r="20" transform="translate(1067.522 128.024)"/><path class="b" d="M1081.284,159.255c-.008-.664-.032-1.306-.016-1.946a1.143,1.143,0,0,1,.489-.835,18.283,18.283,0,0,1,3.279-2.187.567.567,0,0,0,.367-.612c-.035-.63-.015-1.263-.038-1.894a1.012,1.012,0,0,0-.151-.373c-.108-.224-.315-.44-.324-.665-.041-1.018-.074-2.04-.018-3.055a2.235,2.235,0,0,1,2.2-2.032,3.07,3.07,0,0,1,1.89.35,2.389,2.389,0,0,1,1.08,2.054c.02.764.023,1.53.028,2.294a1.337,1.337,0,0,1-.4,1.053.431.431,0,0,0-.105.287c0,.7.019,1.4.015,2.094a.4.4,0,0,0,.245.378q1.682,1.029,3.346,2.086a1.376,1.376,0,0,1,.651,1.265c-.007.52.009,1.04.016,1.587Z" transform="translate(0 0)"/><path class="b" d="M1099.819,159.04l-5.1.061c-.006-.547-.024-1.075-.016-1.6a2.157,2.157,0,0,0-.946-1.9c-.315-.225-.632-.448-.928-.7a.593.593,0,0,1-.191-.37c-.029-.385-.016-.774-.024-1.162s.054-.759-.3-1.065a.845.845,0,0,1-.156-.555q-.038-1.061-.028-2.125a1.937,1.937,0,0,1,1.986-1.995,2.5,2.5,0,0,1,1.476.26,1.905,1.905,0,0,1,.954,1.581c.034.763.039,1.529.024,2.291a1.062,1.062,0,0,1-.219.6.772.772,0,0,0-.193.562c.018.509.028,1.019.016,1.53a.454.454,0,0,0,.276.456c.912.54,1.809,1.1,2.709,1.664a1.339,1.339,0,0,1,.647,1.262C1099.8,158.226,1099.813,158.622,1099.819,159.04Z" transform="translate(0 0)"/><path class="b" d="M1075.359,159.35a15.7,15.7,0,0,1,0-1.693,1.022,1.022,0,0,1,.406-.644c.911-.642,1.844-1.254,2.786-1.851a.5.5,0,0,0,.3-.517c-.027-.375-.013-.753-.02-1.129s.061-.74-.291-1.03a.721.721,0,0,1-.155-.489c-.02-.774-.046-1.551-.011-2.325a1.867,1.867,0,0,1,1.617-1.831,2.384,2.384,0,0,1,2.1.433,1.892,1.892,0,0,1,.683,1.454c.007.72.042,1.441.012,2.159a2.715,2.715,0,0,1-.268.75,1.178,1.178,0,0,0-.115.355c-.006.55.02,1.107.005,1.66a.578.578,0,0,1-.19.375c-.345.294-.723.551-1.069.841a2.032,2.032,0,0,0-.763,1.751c.03.55.017,1.1.024,1.67Z" transform="translate(0 0)"/><path class="b" d="M1095.048,141.4a.62.62,0,1,0,.619.62A.62.62,0,0,0,1095.048,141.4Z" transform="translate(-1.054 -1)"/><path class="b" d="M1094.9,138.792a.556.556,0,0,0-.461.638l.21,1.3a.352.352,0,0,0,.7,0l.194-1.306a.608.608,0,0,0,0-.171.557.557,0,0,0-.637-.461Z" transform="translate(-1.054 -1)"/><path class="b" d="M1100.6,139.332a6.114,6.114,0,0,0-6.015-5.174c-.32.024-.588.023-.849.064a6.189,6.189,0,0,0-3.971,9.758c.49.679.49.756-.082,1.4-.156.178-.354.316-.52.486a3.709,3.709,0,0,0-.272.355,1.309,1.309,0,0,0,.408.195,3.044,3.044,0,0,0,1.978-.526.616.616,0,0,1,.712-.056,5.765,5.765,0,0,0,4.264.39A6.175,6.175,0,0,0,1100.6,139.332Zm-2.9,2.979a.744.744,0,0,1-.653.4h-4.909a.754.754,0,0,1-.749-.76.774.774,0,0,1,.118-.411l2.449-3.905a.745.745,0,0,1,1.264,0l2.449,3.905A.77.77,0,0,1,1097.7,142.311Z" transform="translate(-0.53 -0.455)"/></g></svg>