<svg xmlns="http://www.w3.org/2000/svg" width="42" height="42" viewBox="0 0 42 42"><defs><style>.a{stroke:#b4b4b4;stroke-width:2px;}.b{fill:#fff;}</style></defs><g transform="translate(-842.033 -27.645)"><g transform="translate(843.034 28.645)"><path class="a" d="M20,0A20,20,0,1,1,0,20,20,20,0,0,1,20,0Z"/></g><g transform="translate(812.033 80.453)"><g transform="translate(41.329 -40.52)"><path class="b" d="M203.375,204.5c.419,0,.809-.028,1.192.009.31.029.369-.12.424-.368a3.479,3.479,0,0,1,1.524-2.32,3.883,3.883,0,0,1,3.3-.345,4.53,4.53,0,0,1,2.21,1.607c.468.568.888,1.176,1.373,1.726a6.435,6.435,0,0,0,1.178,1.081c.559.38.909.28,1.345-.243a.816.816,0,0,1,.533-.373.642.642,0,0,1,.654.28.623.623,0,0,1,.01.734,2.246,2.246,0,0,1-3.126.839,6.949,6.949,0,0,1-1.926-1.791c-.5-.609-.967-1.243-1.493-1.828a2.739,2.739,0,0,0-3.017-.708A2.119,2.119,0,0,0,206.3,204.5h1.159c0,.461.009.89,0,1.32a.263.263,0,0,0,.219.307,7.555,7.555,0,0,1,3.133,12.513,7.115,7.115,0,0,1-4.395,2.183,7.329,7.329,0,0,1-6.245-2.078,7.127,7.127,0,0,1-2.26-6.011,7.338,7.338,0,0,1,5.168-6.566c.23-.083.325-.176.31-.429C203.357,205.342,203.375,204.944,203.375,204.5Z" transform="translate(-197.864 -201.271)"/><path class="b" d="M462.37,205.08l.9.055-.575,2.656h-.034C462.563,206.9,462.469,206.012,462.37,205.08Z" transform="translate(-443.884 -204.814)"/><path class="b" d="M493.434,262.32c-.034.318-.064.6-.1.892l-2.538-.689v-.06Z" transform="translate(-470.327 -258.053)"/><path class="b" d="M421.9,217.414l.686-.584,1.37,2.288-.036.032Z" transform="translate(-406.242 -215.743)"/><path class="b" d="M488.411,217.69l.633.632-2.093,1.522-.051-.041Z" transform="translate(-466.699 -216.542)"/><path class="b" d="M481.75,283.018l-.815.349-.645-2.566.048-.022C480.806,281.521,481.273,282.263,481.75,283.018Z" transform="translate(-460.551 -275.223)"/></g></g></g></svg>