<svg xmlns="http://www.w3.org/2000/svg" width="42" height="42" viewBox="0 0 42 42"><defs><style>.a{fill:#6d24c3;stroke:#b077f4;stroke-miterlimit:10;stroke-width:2px;}.b,.c{fill:#fff;}.c{stroke:#6d24c3;stroke-width:0.5px;}</style></defs><g transform="translate(-989.821 -38.373)"><g transform="translate(990.821 39.373)"><ellipse class="a" cx="20" cy="20" rx="20" ry="20"/></g><g transform="translate(1001.271 46.521)"><g transform="translate(0 1.408)"><path class="b" d="M1013.227,63.846c.113-1.16,1.563-10.891,1.916-10.891a2.773,2.773,0,0,0,2.912-2.6,2.741,2.741,0,0,0-2.593-2.585,5.905,5.905,0,0,0-8.389,0,2.733,2.733,0,0,0-2.6,2.586,2.772,2.772,0,0,0,2.911,2.6c.418,0,1.807,10.129,1.9,10.887" transform="translate(-1001.218 -46.021)"/><path class="c" d="M1006.769,58.732c.359.314-2.83,8.2-5.637,9.579-.173.086-.238.226-.161.352a.6.6,0,0,0,.5.209h19.089a.6.6,0,0,0,.5-.209c.078-.126.013-.266-.16-.352-2.808-1.384-6.318-9.188-6.469-9.235s-.609,3-2.028,3.175Z" transform="translate(-1000.938 -46.021)"/></g><g transform="translate(1.943)"><path class="b" d="M1014.681,54.161a3.3,3.3,0,0,0,1.21.227,3.577,3.577,0,0,0,3.472-3.666,3.616,3.616,0,0,0-3.092-3.643,6.309,6.309,0,0,0-10.005,0,3.681,3.681,0,0,0,.367,7.311,3.334,3.334,0,0,0,1.448-.333Z" transform="translate(-1003.161 -44.613)"/></g></g></g></svg>