<svg xmlns="http://www.w3.org/2000/svg" width="42" height="42" viewBox="0 0 42 42"><defs><style>.a{fill:#888787;stroke:#a9a9a9;stroke-width:2px;}.b{fill:#fff;}</style></defs><g transform="translate(-935.542 -37.03)"><g transform="translate(936.542 38.03)"><path class="a" d="M20,0A20,20,0,1,1,0,20,20,20,0,0,1,20,0Z"/><path class="b" d="M967.654,63.773h-7.017a5.068,5.068,0,0,1-2.114-.465,4.781,4.781,0,0,0-4.451.25,3.263,3.263,0,0,1-3.382,0,4.746,4.746,0,0,0-4.917,0,.873.873,0,0,1-.4.13.657.657,0,0,0-.632.633v2.986a.666.666,0,0,0,.691.636h22.225a.664.664,0,0,0,.691-.635h0v-2.9a.663.663,0,0,0-.689-.635Z" transform="translate(-936.542 -36.521)"/><path class="b" d="M965.945,53.866h-11.6a1.908,1.908,0,1,1,1.92-1.908h0a.64.64,0,0,0,1.28.038.232.232,0,0,0,0-.038,3.2,3.2,0,1,0-3.2,3.18h11.6a.636.636,0,0,0,0-1.272Z" transform="translate(-935.415 -37.351)"/><path class="b" d="M965.945,56.41h-8.406a2.544,2.544,0,1,0,1.812,4.343.634.634,0,0,0,0-.9.643.643,0,0,0-.906,0,1.276,1.276,0,1,1-.908-2.172h8.408a.636.636,0,1,0,0-1.272Z" transform="translate(-935.323 -36.913)"/><path class="b" d="M965.945,51.322h-5.208a.638.638,0,0,1-.638-.635.664.664,0,0,1,1.092-.45.643.643,0,0,0,.906,0,.634.634,0,0,0,0-.9,1.914,1.914,0,1,0-1.359,3.256h5.208a.636.636,0,0,0,0-1.271Z" transform="translate(-935.255 -37.401)"/><path class="b" d="M950.5,57.682h-1.452l.726-1.249a.634.634,0,0,0-.234-.869.643.643,0,0,0-.874.233l-.726,1.247-.726-1.249a.642.642,0,0,0-.879-.216.634.634,0,0,0-.23.851l.726,1.25h-1.451a.636.636,0,0,0,0,1.272h1.451L946.1,60.2a.635.635,0,0,0,.235.869.643.643,0,0,0,.874-.233h0l.726-1.249.726,1.249a.642.642,0,0,0,.868.256.634.634,0,0,0,.257-.863l-.017-.029-.726-1.245H950.5a.636.636,0,1,0,.038-1.272H950.5Z" transform="translate(-936.087 -36.95)"/><path class="b" d="M950.5,47.506h-.64V46.87a.64.64,0,0,0-1.28,0v.636h-.64a.636.636,0,1,0-.038,1.272h.678v.636a.64.64,0,0,0,1.28,0v-.636h.64a.636.636,0,1,0,.038-1.272Z" transform="translate(-935.992 -37.55)"/><ellipse class="b" cx="0.64" cy="0.636" rx="0.64" ry="0.636" transform="translate(16.634 19.38)"/><ellipse class="b" cx="0.64" cy="0.636" rx="0.64" ry="0.636" transform="translate(28.747 8.65)"/><ellipse class="b" cx="0.64" cy="0.636" rx="0.64" ry="0.636" transform="translate(26.02 22.063)"/></g></g></svg>