<svg id="Icon_Models" data-name="Icon/Models" xmlns="http://www.w3.org/2000/svg" width="28" height="28" viewBox="0 0 28 28">
  <rect id="Rectangle" width="28" height="28" fill="gray" opacity="0.004"/>
  <path id="Active" d="M-293.952,2837.61l2.4-.425a10.52,10.52,0,0,0,2.686,2.567A8.055,8.055,0,0,1-293.952,2837.61Zm3.6-.636,2.187-.385.462,2.621A9.643,9.643,0,0,1-290.356,2836.975Zm6.61-1.174,2.348-.414a7.986,7.986,0,0,1-3.991,3.747A10.581,10.581,0,0,0-283.746,2835.8Zm-3.379.6,2.187-.385a9.689,9.689,0,0,1-1.724,3.014Zm-9.167-2.765,2.907-.513a10.955,10.955,0,0,0,1.207,3.1l-2.63.464A7.978,7.978,0,0,1-296.292,2833.633Zm3.954-.7,3.419-.6.566,3.211-2.7.475A9.766,9.766,0,0,1-292.339,2832.936Zm4.464-.8,3.42-.6a9.831,9.831,0,0,1-.155,3.345l-2.7.476Zm4.467-.788,2.837-.5a8.081,8.081,0,0,1-.344,3.378l-2.568.453A11.025,11.025,0,0,0-283.408,2831.352Zm-12.724-2.073,2.649-.467a11.031,11.031,0,0,0-.083,3.26l-2.91.514A7.9,7.9,0,0,1-296.132,2829.279Zm3.778-.66,2.7-.476.554,3.141-3.416.6A9.8,9.8,0,0,1-292.354,2828.619Zm3.743-.661,2.7-.476a9.734,9.734,0,0,1,1.271,3.014l-3.415.6Zm3.825-.675,2.588-.456a7.908,7.908,0,0,1,1.443,2.984l-2.84.5A10.962,10.962,0,0,0-284.786,2827.284Zm-6.784-2.924a10.54,10.54,0,0,0-1.65,3.333l-2.425.428A8.051,8.051,0,0,1-291.57,2824.36Zm1.267.116.462,2.622-2.187.385A9.669,9.669,0,0,1-290.3,2824.476Zm1.046-.185a9.661,9.661,0,0,1,2.648,2.236l-2.186.386Zm1.156-.539a7.979,7.979,0,0,1,5.054,2.146l-2.37.419A10.5,10.5,0,0,0-288.1,2823.752Z" transform="translate(302.522 -2817.752)" fill="#2ea7a5" stroke="rgba(0,0,0,0)" stroke-miterlimit="10" stroke-width="1"/>
</svg>
