<svg id="Icon_Notification" data-name="Icon/Notification" xmlns="http://www.w3.org/2000/svg" width="30" height="30" viewBox="0 0 30 30">
  <rect id="Rectangle" width="30" height="30" fill="gray" opacity="0"/>
  <g id="Active" transform="translate(6 9)">
    <path id="Subtraction_11" data-name="Subtraction 11" d="M-350.227,2790.463h-15.546A1.154,1.154,0,0,1-367,2789.4v-9.882a1.154,1.154,0,0,1,1.228-1.059H-358a6.471,6.471,0,0,0,1.48,4.115l-.706.564-.037.03-.005,0a1.812,1.812,0,0,1-1.048.384,1.616,1.616,0,0,1-.993-.376l-.009-.007-.008-.007-.031-.024c-.64-.5-3.846-2.987-4.17-3.252a.618.618,0,0,0-.391-.146.539.539,0,0,0-.5.344.606.606,0,0,0,.212.673c.227.2,1.622,1.266,4.146,3.173l.087.066.059.044.063.047a2.488,2.488,0,0,0,1.527.527,2.483,2.483,0,0,0,1.525-.526l1.01-.768a6.457,6.457,0,0,0,4.252,1.6h1.076a6.5,6.5,0,0,0,1.462-.166v4.645A1.154,1.154,0,0,1-350.227,2790.463Z" transform="translate(367 -2778.463)" fill="#2ea7a5"/>
    <path id="Union_7" data-name="Union 7" d="M-366.82,2775.538a.479.479,0,0,1-.015-.735l.51-.425,2.574-2.236a.687.687,0,0,1,.852.012.48.48,0,0,1,.015.736l-2.184,1.864-.9.8a.67.67,0,0,1-.418.141A.667.667,0,0,1-366.82,2775.538Z" transform="translate(368.227 -2764.752)" fill="#fff"/>
    <path id="Union_8" data-name="Union 8" d="M.18.155A.479.479,0,0,0,.165.89l.51.425L3.248,3.551A.687.687,0,0,0,4.1,3.538.48.48,0,0,0,4.116,2.8L1.932.938l-.9-.8A.67.67,0,0,0,.614,0,.667.667,0,0,0,.18.155Z" transform="translate(16.78 10.941) rotate(180)" fill="#fff"/>
    <g id="Group_34" data-name="Group 34" transform="translate(10 -6.5)">
      <rect id="Rectangle_Copy_24" data-name="Rectangle Copy 24" width="12" height="12" rx="6" fill="#b51919"/>
    </g>
  </g>
</svg>
