<svg id="Icon_Reports" data-name="Icon/Reports" xmlns="http://www.w3.org/2000/svg" width="28" height="28" viewBox="0 0 28 28">
  <rect id="Rectangle" width="28" height="28" fill="gray" opacity="0"/>
  <g id="Group_6" data-name="Group 6">
    <path id="Subtraction_6" data-name="Subtraction 6" d="M-195,2836.5h-8a1.959,1.959,0,0,1-2-1.91v-10.182a1.958,1.958,0,0,1,2-1.909h5.333a.681.681,0,0,1,.472.186l4,3.819a.625.625,0,0,1,.2.45v7.635A1.959,1.959,0,0,1-195,2836.5Zm-6.85-4.294a.627.627,0,0,0-.65.6.627.627,0,0,0,.65.6h5.2a.627.627,0,0,0,.65-.6.627.627,0,0,0-.65-.6Zm0-2.614a.627.627,0,0,0-.65.6.627.627,0,0,0,.65.6h5.2a.627.627,0,0,0,.65-.6.627.627,0,0,0-.65-.6Zm.1-2.613a.688.688,0,0,0-.75.6.688.688,0,0,0,.75.6h1.5a.688.688,0,0,0,.75-.6.688.688,0,0,0-.75-.6Z" transform="translate(213 -2815.5)" fill="#2ea7a5" stroke="rgba(0,0,0,0)" stroke-miterlimit="10" stroke-width="1"/>
  </g>
</svg>
