<svg id="Icon_Alerts" data-name="Icon/Alerts" xmlns="http://www.w3.org/2000/svg" width="28" height="28" viewBox="0 0 28 28">
  <rect id="Mask" width="28" height="28" fill="gray" opacity="0"/>
  <g id="Active" transform="translate(7 7)">
    <path id="Path" d="M13.364,11H.636a.647.647,0,0,1,0-1.294A1.284,1.284,0,0,0,1.909,8.412V5.176A5.134,5.134,0,0,1,7,0a5.134,5.134,0,0,1,5.091,5.176V8.412a1.284,1.284,0,0,0,1.273,1.294A.647.647,0,0,1,13.364,11Z" fill="#2ea7a5"/>
    <path id="Path-2" data-name="Path" d="M3.413,1A1.909,1.909,0,0,1,1.75,2,1.909,1.909,0,0,1,.087,1,.668.668,0,0,1,.642,0H2.858A.668.668,0,0,1,3.413,1Z" transform="translate(5 12)" fill="#2ea7a5"/>
  </g>
</svg>
