<svg id="Icon_Exposures" data-name="Icon/Exposures" xmlns="http://www.w3.org/2000/svg" width="28" height="28" viewBox="0 0 28 28">
  <rect id="Mask" width="28" height="28" fill="gray" opacity="0"/>
  <g id="Selection" transform="translate(5 7)">
    <path id="Combined_Shape" data-name="Combined Shape" d="M12.308,13.906l-4-4.752A5.621,5.621,0,0,1,8.6,1.626a5.5,5.5,0,0,1,7.8,0,5.621,5.621,0,0,1,.291,7.528l-3.98,4.751a.267.267,0,0,1-.2.1A.263.263,0,0,1,12.308,13.906ZM10,5.5A2.5,2.5,0,1,0,12.5,3,2.5,2.5,0,0,0,10,5.5ZM.681,14a.629.629,0,0,1-.325-.09C.338,13.9.319,13.885.3,13.872a.666.666,0,0,1-.1-.092.779.779,0,0,1-.2-.53v-2.5A.719.719,0,0,1,.681,10H8.018a.22.22,0,0,1,.172.086l2.754,3.5a.27.27,0,0,1,.029.282.223.223,0,0,1-.2.131ZM1.5,12a.4.4,0,0,0,.4.4H3.1a.4.4,0,0,0,0-.8H1.9A.4.4,0,0,0,1.5,12ZM.635,9a.546.546,0,0,1-.3-.091A.394.394,0,0,1,.28,8.872.64.64,0,0,1,.186,8.78.815.815,0,0,1,0,8.25V5.75A.7.7,0,0,1,.635,5h5.3a.2.2,0,0,1,.138.06.273.273,0,0,1,.073.194,6.594,6.594,0,0,0,.822,3.356.29.29,0,0,1,0,.283A.2.2,0,0,1,6.79,9ZM1.5,7a.4.4,0,0,0,.4.4H3.1a.4.4,0,0,0,0-.8H1.9A.4.4,0,0,0,1.5,7ZM11,5.5A1.5,1.5,0,1,1,12.5,7,1.5,1.5,0,0,1,11,5.5ZM.638,4a.569.569,0,0,1-.3-.091C.316,3.9.3,3.885.282,3.872A.65.65,0,0,1,.187,3.78.814.814,0,0,1,0,3.25V.75A.7.7,0,0,1,.638,0h7.15a.207.207,0,0,1,.191.139.284.284,0,0,1-.056.3c-.089.087-.178.183-.264.282A6.2,6.2,0,0,0,6.265,3.8a.223.223,0,0,1-.208.2ZM1.5,2a.4.4,0,0,0,.4.4H3.1a.4.4,0,0,0,0-.8H1.9A.4.4,0,0,0,1.5,2Z" fill="#2ea7a5"/>
  </g>
</svg>
