<svg id="Icon_Support" data-name="Icon/Support" xmlns="http://www.w3.org/2000/svg" width="28" height="28" viewBox="0 0 28 28">
  <rect id="Mask" width="28" height="28" fill="gray" opacity="0"/>
  <g id="Active" transform="translate(6 6)">
    <path id="Subtraction_9" data-name="Subtraction 9" d="M-320,2790a8.009,8.009,0,0,1-8-8,8.009,8.009,0,0,1,8-8,8.009,8.009,0,0,1,8,8A8.009,8.009,0,0,1-320,2790Zm-.26-5.067a.638.638,0,0,0-.641.634.638.638,0,0,0,.641.634.637.637,0,0,0,.64-.634A.637.637,0,0,0-320.26,2784.933Zm.172-5.539h0a1.208,1.208,0,0,1,1.139.74,1.473,1.473,0,0,1-.537,1.516c-.107.084-.232.164-.366.248a2.54,2.54,0,0,0-.772.646s-.263.245-.267,1.3a.551.551,0,0,0-.009.1.607.607,0,0,0,.61.6.606.606,0,0,0,.609-.6.6.6,0,0,0,0-.069h.006a1.091,1.091,0,0,1,.26-.839,2.9,2.9,0,0,1,.527-.461,3.591,3.591,0,0,0,.611-.533,2.378,2.378,0,0,0,.381-2.5,2.426,2.426,0,0,0-2.189-1.352,2.411,2.411,0,0,0-1.705.7,2.5,2.5,0,0,0-.691,1.355.581.581,0,0,0-.014.132.6.6,0,0,0,.607.6.606.606,0,0,0,.607-.593h.007a1.479,1.479,0,0,1,.337-.652A1.2,1.2,0,0,1-320.089,2779.395Z" transform="translate(328 -2774)" fill="#2ea7a5"/>
  </g>
</svg>
